<?xml version="1.0" standalone="no"?>
<!DOCTYPE svg PUBLIC "-//W3C//DTD SVG 1.1//EN" "http://www.w3.org/Graphics/SVG/1.1/DTD/svg11.dtd" >
<svg xmlns="http://www.w3.org/2000/svg">
<metadata>
This is a custom SVG webfont generated by Font Squirrel.
Copyright   : Copyright c 2006 by Henning Skibbe All rights reserved
Designer    : Henning Skibbe
Foundry     : Henning Skibbe
</metadata>
<defs>
<font id="NautikBold" horiz-adv-x="1368" >
<font-face units-per-em="2048" ascent="1622" descent="-426" />
<missing-glyph horiz-adv-x="409" />
<glyph unicode=" "  horiz-adv-x="409" />
<glyph unicode="&#x09;" horiz-adv-x="409" />
<glyph unicode="&#xa0;" horiz-adv-x="409" />
<glyph unicode="!" horiz-adv-x="411" d="M205 0v262h104v-262h-104zM205 543v1069h104v-1069h-104z" />
<glyph unicode="&#x22;" horiz-adv-x="663" d="M143 989q-20 236 4.5 383.5t104.5 247.5l63 -57q-53 -115 -66 -232t-1 -342h-105zM408 989q-20 233 4 381t102 250l66 -57q-53 -115 -66.5 -230.5t-1.5 -343.5h-104z" />
<glyph unicode="#" horiz-adv-x="1085" d="M51 373l15 102h202l56 350h-209l14 101h209l57 372h107l-58 -372h252l58 372h106l-55 -372h231l-12 -101h-236l-53 -350h240l-12 -102h-244l-57 -373h-107l55 373h-250l-57 -373h-106l57 373h-203zM379 475h250l53 350h-250z" />
<glyph unicode="$" horiz-adv-x="1060" d="M102 -29v490h109v-156q18 -88 95 -150.5t177 -72.5v690q-86 29 -138 52.5t-113.5 65.5t-91 103.5t-29.5 145.5q0 168 110.5 265t261.5 101v158h97v-164q117 -18 182 -117v121h110v-450h-110v118q-14 86 -62.5 142.5t-119.5 77.5v-545q182 -55 288.5 -155.5t106.5 -282.5 q0 -184 -107.5 -300t-287.5 -133v-186h-97v188q-166 8 -272 140v-146h-109zM221 1139q0 -102 68.5 -158.5t193.5 -99.5v522q-111 -4 -186.5 -73.5t-75.5 -190.5zM580 80q131 14 206.5 99t75.5 229q0 74 -24.5 131t-70.5 96t-88 61.5t-99 42.5v-659z" />
<glyph unicode="%" horiz-adv-x="1353" d="M72 1120q0 156 65.5 269.5t179.5 113.5q119 0 172.5 -108.5t53.5 -268.5q0 -143 -59.5 -242.5t-180.5 -99.5q-86 0 -139 52.5t-72.5 123t-19.5 160.5zM156 1120q0 -254 149 -254q154 0 154 258q0 299 -146 299q-70 0 -113.5 -89t-43.5 -214zM375 0q55 164 230 685 t269 806h101q-90 -268 -259 -770t-243 -721h-98zM805 328q0 150 65.5 263.5t178.5 113.5q121 0 173 -106.5t52 -266.5q0 -145 -57.5 -243.5t-182.5 -98.5q-123 0 -176 96.5t-53 241.5zM887 328q0 -258 151 -258q78 0 115 70.5t37 187.5q0 297 -143 297q-70 0 -115 -87 t-45 -210z" />
<glyph unicode="&#x26;" horiz-adv-x="1193" d="M96 310q0 132 13.5 229.5t42.5 169.5q29 66 74.5 111.5t125.5 101.5q-125 188 -125 342q0 106 83 192t212 86q131 0 202 -85t71 -189l-95 -49q0 102 -48 161.5t-132 59.5q-76 0 -131 -50.5t-55 -117.5q0 -94 54 -196.5t241 -387.5q59 -92 94 -143q0 2 7 16t13.5 28.5 t14.5 39t15 54.5t13.5 65.5t10.5 80.5t4 93h260v-103h-170q-6 -176 -107 -362q53 -76 85 -119t88.5 -109.5t104.5 -99.5t87 -33v-104q-59 0 -119.5 31.5t-118 94t-91.5 104.5t-83 114q-10 14 -14 20q-92 -135 -197 -219v2q-188 -150 -428 -149q-2 188 -2 320zM199 317.5 q0 -96.5 2 -221.5q141 16 268 121q104 82 193 225q-172 260 -252 392q-125 -66 -170 -189q-20 -63 -30.5 -147t-10.5 -180.5z" />
<glyph unicode="'" horiz-adv-x="415" d="M141 989q-18 238 4.5 376t104.5 255l63 -57q-53 -127 -65 -232.5t-2 -341.5h-105z" />
<glyph unicode="(" horiz-adv-x="309" d="M55 633q0 449 131 966l101 23q-135 -506 -135 -993q2 -442 135 -1006l-101 17q-131 536 -131 993z" />
<glyph unicode=")" horiz-adv-x="309" d="M18 -377q135 506 136 993q-2 442 -136 1006l101 -16q131 -537 131 -994q0 -449 -131 -966z" />
<glyph unicode="*" horiz-adv-x="735" d="M63 1321l25 78l242 -82l-6 256h86l-7 -256l242 82l27 -78l-246 -76l154 -205l-68 -49l-145 207l-150 -207l-65 51l151 201z" />
<glyph unicode="+" horiz-adv-x="821" d="M63 539v96h295v346h105v-346h295v-96h-295v-349h-105v349h-295z" />
<glyph unicode="," horiz-adv-x="372" d="M84 -309q53 127 65.5 232.5t2.5 340.5h104q18 -238 -4.5 -376t-104.5 -255z" />
<glyph unicode="-" horiz-adv-x="784" d="M80 512v100h625v-100h-625z" />
<glyph unicode="." horiz-adv-x="352" d="M158 0v266h110v-266h-110z" />
<glyph unicode="/" horiz-adv-x="776" d="M10 -268l643 1843h113l-643 -1843h-113z" />
<glyph unicode="0" horiz-adv-x="864" d="M74 508q0 229 106.5 407.5t270.5 178.5q123 0 203.5 -87t110.5 -210t30 -279q0 -104 -19.5 -195.5t-60.5 -168t-113 -120.5t-168 -44q-100 0 -174 44t-112.5 120.5t-56 164t-17.5 189.5zM178 508q0 -186 64.5 -302t191.5 -116q123 0 190.5 121t67.5 301q0 215 -60.5 348 t-185.5 133q-111 0 -189.5 -146t-78.5 -339z" />
<glyph unicode="1" horiz-adv-x="630" d="M47 956l344 138v-996h187v-98h-486v98h197v860l-207 -86z" />
<glyph unicode="2" horiz-adv-x="739" d="M55 0q43 207 105.5 323.5t210.5 264.5q166 170 166 405q-66 0 -124.5 -9t-119 -34.5t-95 -79t-32.5 -129.5l-82 23q-2 86 35 149.5t90 97t135 53t148.5 25t150.5 5.5q2 -168 -35 -290t-96 -197t-121.5 -140.5t-122 -158.5t-86.5 -210h383v158h103v-256h-613z" />
<glyph unicode="3" horiz-adv-x="780" d="M29 -201q266 109 399 275t133 319q0 94 -61.5 135t-143.5 31t-153 -55l-39 86q287 119 397 387h-387v-127h-102v225h628q-33 -135 -110.5 -259t-186.5 -179q125 14 194 -56.5t69 -179.5q0 -190 -156 -385.5t-447 -308.5z" />
<glyph unicode="4" horiz-adv-x="825" d="M49 100q14 119 23.5 184.5t32 175t46 175t67.5 151.5t97.5 138.5t131 99.5t174.5 70v-895h135v-99h-135v-276h90v-98h-287v98h94v276h-469zM168 199h350v743q-145 -61 -226 -231t-124 -512z" />
<glyph unicode="5" horiz-adv-x="757" d="M49 -201q242 127 375 284t133 327q0 92 -44 140t-116 48q-35 0 -68.5 -7t-69.5 -22.5t-55.5 -24.5t-54 -29.5t-38.5 -22.5v583h546v-225h-104v127h-338v-342q96 61 201 61q121 0 180 -78.5t59 -203.5q0 -401 -563 -703z" />
<glyph unicode="6" horiz-adv-x="819" d="M80 401q0 537 242 779q170 170 378 178l13 -98q-178 -12 -318 -148q-176 -170 -215 -522q51 123 185.5 192.5t281.5 71.5q74 -250 72 -434q0 -193 -80 -309.5t-236 -116.5q-160 0 -241.5 110.5t-81.5 296.5zM184 358q0 -123 58.5 -194.5t160.5 -71.5q90 0 151.5 77 t61.5 239q0 141 -47 333q-156 -10 -270.5 -118.5t-114.5 -264.5z" />
<glyph unicode="7" horiz-adv-x="874" d="M37 852v225h780l35 -116q-88 -61 -134 -96.5t-107.5 -95.5t-91.5 -117.5t-64.5 -146.5t-50 -198.5t-24.5 -259t-9 -342.5h-105q0 403 46 647t136.5 379t260.5 246h-570v-125h-102z" />
<glyph unicode="8" horiz-adv-x="858" d="M76 338q0 215 250 457q-156 133 -156 274q0 115 87 201t218 86q117 0 193.5 -80t76.5 -201q0 -70 -31.5 -141.5t-63.5 -112.5t-85 -100q211 -190 211 -389q0 -154 -95 -253t-257 -99q-166 0 -257 102t-91 256zM180 348q0 -125 72 -198.5t174 -73.5q96 0 172 66.5 t76 185.5q0 219 -279 409q-100 -92 -157.5 -195.5t-57.5 -193.5zM274 1069q0 -84 56.5 -148.5t167.5 -144.5q143 150 143 287q0 86 -49 140t-121 54q-82 0 -139.5 -56t-57.5 -132z" />
<glyph unicode="9" horiz-adv-x="813" d="M80 672q2 186 79 305t249 119q164 0 238.5 -115t74.5 -289q0 -545 -240 -784q-172 -172 -379 -178l-14 96q176 6 320 149q174 178 213 523q-53 -125 -182.5 -193.5t-276.5 -68.5q-82 203 -82 436zM182 680q0 -207 54 -338q152 10 267 121.5t115 265.5q0 121 -54 194.5 t-156.5 73.5t-164 -82.5t-61.5 -234.5z" />
<glyph unicode=":" horiz-adv-x="346" d="M158 0v264h104v-264h-104zM158 707v264h104v-264h-104z" />
<glyph unicode=";" horiz-adv-x="348" d="M84 -309q53 127 65.5 231.5t2.5 341.5h104q18 -238 -4.5 -376t-104.5 -255zM147 705v266h105v-266h-105z" />
<glyph unicode="&#x3c;" horiz-adv-x="833" d="M31 553l651 465l66 -98l-541 -365l543 -373l-68 -94z" />
<glyph unicode="=" horiz-adv-x="878" d="M76 371v96h727v-96h-727zM76 639v96h727v-96h-727z" />
<glyph unicode="&#x3e;" horiz-adv-x="833" d="M84 182l543 373l-541 365l66 98l651 -465l-651 -465z" />
<glyph unicode="?" horiz-adv-x="770" d="M154 1278v262q70 -12 152.5 -39.5t172.5 -73t148.5 -113t58.5 -143.5q0 -72 -36 -127t-86 -92t-100 -70.5t-86 -77.5t-36 -95q0 -88 80 -136l-43 -86q-55 25 -96 79.5t-41 135.5q0 72 35.5 130.5t87 96.5t101.5 72.5t86 75.5t36 88q0 78 -111.5 149.5t-220.5 92.5v-129 h-102zM311 0v266h105v-266h-105z" />
<glyph unicode="@" horiz-adv-x="1409" d="M76 287q0 164 52 327.5t147.5 303t253 226.5t350.5 87q129 0 221 -43t141 -120t70.5 -166t21.5 -195q0 -160 -51 -302.5t-172 -262t-297 -171.5l37 342q-55 -154 -177 -237.5t-280 -83.5q-4 276 20.5 432t110.5 264q131 166 469 256l-73 -825q104 43 177.5 148.5 t103.5 220t30 229.5q0 207 -84 313.5t-268 106.5q-170 0 -307.5 -79t-220.5 -205t-127 -272.5t-44 -295.5q0 -217 85 -355.5t253 -138.5q133 0 258 59l41 -90q-135 -63 -301 -63q-205 0 -322.5 154.5t-117.5 435.5zM492 98q121 20 200 103q86 92 126 224t59 382 q-186 -68 -269 -172q-66 -86 -89 -208t-27 -329z" />
<glyph unicode="A" d="M10 0v102h150l415 1301h-153v102h342l444 -1403h150v-102h-414v102h152l-150 465h-522l-150 -465h148v-102h-412zM453 668h460l-229 735z" />
<glyph unicode="B" horiz-adv-x="1136" d="M117 0v102h155v1272h-155v103h407q217 0 334 -100.5t117 -270.5q0 -102 -59.5 -193.5t-165.5 -117.5q129 -23 217 -132.5t88 -240.5q0 -197 -123 -309.5t-371 -112.5h-444zM383 102h178q383 0 383 320q0 133 -96 224t-260 91h-205v-635zM383 840h207q135 0 204.5 73.5 t69.5 192.5q0 125 -83 196.5t-257 71.5h-141v-534z" />
<glyph unicode="C" horiz-adv-x="1034" d="M72 647q0 188 32.5 339t85 244t122 155.5t137 87t139.5 24.5q188 0 239 -145l-2 98v63h107v-446h-111v41q0 139 -61.5 213t-173.5 74q-170 0 -288 -207q-116 -203 -116 -525v-12q0 -117 19.5 -217t59.5 -181t108.5 -128t156.5 -47q205 0 336 260l92 -47 q-162 -315 -428 -316q-84 0 -158.5 32t-144 103.5t-110.5 209t-41 327.5z" />
<glyph unicode="D" horiz-adv-x="1212" d="M117 0v102h153v1272h-153v103h395q317 0 471 -197t154 -547q0 -119 -13.5 -216t-51.5 -196.5t-99.5 -167t-167 -110.5t-244.5 -43h-444zM381 102h180q137 0 232.5 47.5t144.5 137.5t68.5 196.5t19.5 249.5q0 641 -514 641h-131v-1272z" />
<glyph unicode="E" horiz-adv-x="1204" d="M117 1374v103h977v-258h-111v155h-596v-506h604v-102h-604v-664h596v152h111v-254h-975v102h157v1272h-159z" />
<glyph unicode="F" horiz-adv-x="1138" d="M117 0v102h164v1272h-158v103h967v-260h-111v157h-588v-504h623v-102h-623v-666h162v-102h-436z" />
<glyph unicode="G" horiz-adv-x="1081" d="M68 682q0 219 57 401.5t176 298t279 115.5q186 0 247 -147q0 4 -3 59t-3 102h107v-446h-111v92q0 82 -62.5 160t-176.5 78q-180 0 -290 -217t-110 -521q0 -268 86 -423.5t244 -155.5q123 0 228.5 100.5t111.5 308.5l2 185h-234v102h342v-790h-110l2 100q0 23 3 71t3 54 q-31 -109 -133 -171.5t-205 -62.5q-450 0 -450 707z" />
<glyph unicode="H" horiz-adv-x="1409" d="M117 0v102h157v1272h-157v103h407v-103h-139v-506h637v506h-137v103h407v-103h-159v-1272h159v-102h-407v102h137v664h-637v-664h139v-102h-407z" />
<glyph unicode="I" horiz-adv-x="659" d="M117 0v102h155v1272h-155v103h426v-103h-160v-1272h160v-102h-426z" />
<glyph unicode="J" horiz-adv-x="622" d="M0 -305q45 14 83 39.5t64.5 50.5t48 69t35 72.5t22.5 89t14 91t7 104.5t2 103v112v53v895h-157v103h422v-103h-154v-895q1 -51 1 -101t-1 -99q-2 -98 -8 -185.5t-29.5 -165.5t-60.5 -140t-100.5 -111.5t-153.5 -77.5z" />
<glyph unicode="K" horiz-adv-x="1239" d="M117 0v102h155v1272h-155v103h391v-103h-123v-557q186 0 207 -2l274 559h-110v103h358v-103h-129l-283 -581q92 -27 136 -109q76 -86 200 -491q18 -59 29 -91h133v-102h-217q-14 51 -36.5 124t-33 107.5t-27 87t-24.5 78t-20.5 61.5t-20.5 53t-19 39.5t-21.5 38 t-22.5 29.5q-66 96 -240 97h-133v-613h123v-102h-391z" />
<glyph unicode="L" horiz-adv-x="1058" d="M117 0v102h157v1272h-155v103h422v-103h-156v-1272h541v150h110v-252h-919z" />
<glyph unicode="M" horiz-adv-x="1671" d="M20 0v102h158l207 1272h-156v103h338l269 -1246l268 1246h340v-103h-160l209 -1272h158v-102h-404v102h133l-204 1276l-304 -1392h-86l-309 1392l-190 -1276h137v-102h-404z" />
<glyph unicode="N" horiz-adv-x="1439" d="M117 0v102h157v1272h-157v103h334l632 -1260l-6 154v1003h-157v103h419v-103h-155v-1386h-109l-698 1392l4 -129v-1149h158v-102h-422z" />
<glyph unicode="O" horiz-adv-x="1146" d="M76 719q0 354 144.5 575.5t367.5 221.5t353 -221.5t130 -575.5q0 -348 -140 -540.5t-368 -192.5q-219 0 -353 200.5t-134 532.5zM186 719q0 -311 111 -471t266 -160q166 0 282 155.5t116 475.5q0 330 -108 512t-265 182q-162 0 -282 -183t-120 -511z" />
<glyph unicode="P" horiz-adv-x="1032" d="M117 0v102h159v1272h-159v103h397q229 0 363 -116q131 -114 131 -326q0 -422 -621 -437v-496h158v-102h-428zM387 698q94 0 174 13.5t160 47.5t127 103q49 73 49 177q0 163 -97 248q-99 87 -286 87h-127v-676z" />
<glyph unicode="Q" horiz-adv-x="1155" d="M76 702q0 346 146.5 571.5t367.5 225.5q223 0 353 -222t130 -575q0 -258 -77.5 -433t-215.5 -246q72 -162 260 -162v-103q-248 0 -362 224q-57 -14 -107 -15q-221 0 -358 201.5t-137 533.5zM186 702q0 -311 114 -471.5t271 -160.5q166 0 279 155.5t113 476.5 q0 330 -107.5 512.5t-265.5 182.5q-160 0 -282 -189t-122 -506z" />
<glyph unicode="R" horiz-adv-x="1200" d="M117 0v102h157v1272h-157v103h268q227 0 326.5 -18.5t179.5 -96.5q115 -119 115 -287q0 -127 -74 -226t-195 -122q59 -10 107 -57q66 -66 91.5 -179.5t55.5 -388.5h135v-102h-237q-2 27 -9.5 104.5t-10.5 111.5t-10 98.5t-15 100.5t-21.5 81t-30 74.5t-36.5 50.5 q-39 39 -90.5 51t-135.5 12h-145v-582h143v-102h-411zM385 782h207q152 0 227.5 75t75.5 214q0 133 -84 217q-57 59 -145 75q-70 12 -205 12q-36 0 -76 -1v-592z" />
<glyph unicode="S" horiz-adv-x="1062" d="M102 -16v479h109v-105q18 -137 105 -206.5t212 -69.5q154 0 244 86t90 242q0 96 -41 162.5t-107.5 103.5t-146.5 63.5t-160.5 54t-147 64.5t-107.5 104.5t-41 165.5q0 172 116.5 270.5t274.5 98.5q82 0 152.5 -38t111.5 -107l-2 71v58h110v-439h-110v82q-14 139 -87 205 t-175 66q-117 0 -199 -70t-82 -197q0 -76 42 -128t108.5 -81.5t147.5 -54t161 -56.5t146.5 -76t108.5 -126t42 -196q0 -199 -123 -314.5t-326 -115.5q-215 0 -321 161l4 -61v-96h-109z" />
<glyph unicode="T" horiz-adv-x="1155" d="M14 1219v258h1127v-258h-111v155h-397v-1272h158v-102h-426v102h157v1272h-397v-155h-111z" />
<glyph unicode="U" horiz-adv-x="1349" d="M82 1374v103h274v-1360q90 12 191.5 80.5t195 184.5t153.5 300t60 399v293h-141v103h410v-103h-158v-1272h166v-102h-277v602q-70 -270 -274.5 -437t-435.5 -167v1376h-164z" />
<glyph unicode="V" horiz-adv-x="1230" d="M94 1374v103h410v-103h-142v-1274q131 29 230.5 98.5t163 173t104.5 215t60.5 256t26.5 263.5t7 268h-143v103h399v-103h-145q1 -78 1 -160v-85q-1 -128 -25.5 -262t-58.5 -259t-99.5 -236.5t-149.5 -196.5t-208 -139t-273 -63v1401h-158z" />
<glyph unicode="W" horiz-adv-x="1730" d="M82 1374v103h416v-103h-146v-1296q125 39 215 129t143.5 206.5t84 288.5t41 340t12.5 400h110v-1364q133 33 229.5 139.5t144.5 233.5t76 305t35 304t11 281v33h-145v103h407v-103h-151q0 -135 -5.5 -252.5t-22.5 -265t-47 -265.5t-85 -238t-129 -200.5t-183.5 -133 t-244.5 -54.5l2 649q-39 -276 -203 -459.5t-405 -191.5v1411h-160z" />
<glyph unicode="X" horiz-adv-x="1210" d="M55 0v102h156q10 258 91 419t218 304q-152 127 -221.5 246t-73.5 303h-157v103h403v-103h-137q2 -158 64.5 -271.5t191.5 -215.5q92 86 142 143t94 148.5t51 195.5h-138v103h404v-103h-156q-6 -94 -31.5 -171t-78 -147.5t-93.5 -112.5t-120 -116q63 -59 108 -114.5 t91 -140.5t70.5 -203.5t29.5 -266.5h192v-102h-303q0 172 -20.5 302t-61.5 218t-80 140.5t-98 107.5q-117 -125 -188.5 -278.5t-81.5 -387.5h131v-102h-398z" />
<glyph unicode="Y" horiz-adv-x="1126" d="M20 1374v103h396v-103h-144q4 -201 84 -400.5t205 -318.5q129 119 208 313.5t81 405.5h-141v103h397v-103h-145q-2 -233 -98.5 -446t-248.5 -357v-469h158v-102h-422v102h156v469q-150 143 -246 356.5t-98 446.5h-142z" />
<glyph unicode="Z" horiz-adv-x="1081" d="M61 0l773 1374h-605v-178h-108v281h899l-770 -1375h627v174h110v-276h-926z" />
<glyph unicode="[" horiz-adv-x="364" d="M59 -401v1970h287v-103h-176v-1765h176v-102h-287z" />
<glyph unicode="\" horiz-adv-x="776" d="M10 1575h113l643 -1843h-113z" />
<glyph unicode="]" horiz-adv-x="364" d="M18 -299h177v1765h-177v103h287v-1970h-287v102z" />
<glyph unicode="^" horiz-adv-x="860" d="M61 850l310 627h121l307 -627l-115 -14l-254 546l-254 -546z" />
<glyph unicode="_" horiz-adv-x="954" d="M16 0h922v-102h-922v102z" />
<glyph unicode="`" horiz-adv-x="352" d="M0 1370l74 86l278 -190l-59 -70z" />
<glyph unicode="a" horiz-adv-x="854" d="M93 490q24 194 151 306.5t418 192.5v-895h112v-94h-217v180q0 27 3 70t6 75.5t3 39.5q-39 -160 -168 -266q-127 -103 -296 -103h-7q-16 165 -15 298q-1 109 10 196zM187 407q-1 -28 0 -59q0 -101 8 -233q174 25 268 185.5t94 399.5v156q-135 -45 -212 -102.5t-116 -142 t-42 -204.5z" />
<glyph unicode="b" horiz-adv-x="811" d="M70 1413v94h266v-94h-82v-586q0 -86 -10 -209q27 135 145.5 236.5t331.5 126.5q9 -126 9 -236q0 -83 -5 -156q-12 -171 -67.5 -294t-179.5 -202t-328 -113v1433h-80zM246 96q106 29 178 74t115 109.5t64.5 150.5t26.5 195q2 49 2 103q0 65 -3 138q-383 -90 -383 -594 v-176z" />
<glyph unicode="c" horiz-adv-x="733" d="M85 487q11 203 141 327t415 171v-295h-102v172q-178 -41 -261 -135t-94 -251q-3 -52 -3 -112q0 -120 14 -272q145 4 225 45t139 158l86 -47q-72 -145 -186.5 -200.5t-354.5 -55.5q-22 214 -22 380q0 61 3 115z" />
<glyph unicode="d" horiz-adv-x="843" d="M93 477q13 190 117.5 307t344.5 191v436h-82v94h266v-94h-82v-1317h107v-94h-209v182q0 47 7 128t7 83q-27 -180 -158 -290q-127 -106 -298 -105h-13q-12 175 -12 314q0 90 5 165zM189 482q-8 -71 -8 -157q0 -101 12 -223q162 18 263 182q99 160 99 432v11v145 q-176 -47 -262.5 -141t-103.5 -249z" />
<glyph unicode="e" horiz-adv-x="780" d="M86 459q27 313 256 436q129 70 330 88q4 -55 4 -106q0 -528 -488 -533q0 -141 17 -252q156 4 243 43t154 141l88 -51q-94 -137 -218 -185t-366 -48q-23 255 -23 390q0 45 3 77zM190 434q379 6 380 417q0 9 -1 17q-383 -65 -379 -434z" />
<glyph unicode="f" horiz-adv-x="499" d="M90 877v94h86v258q0 141 75 214q73 71 195 71q3 0 7 -1l6 -94q-178 -12 -178 -190v-258h92v-94h-92v-783h86v-94h-271v94h80v783h-86z" />
<glyph unicode="g" horiz-adv-x="782" d="M95 474q15 196 148.5 322t424.5 193v-893q0 -131 -50.5 -232.5t-134.5 -157.5t-182 -83q-85 -23 -176 -23q-14 0 -29 1v209h107v-103q61 4 119.5 26.5t116 64.5t92 120t34.5 178q0 72 4 150t4 88q-31 -180 -162 -260q-129 -78 -296 -78h-9q-17 179 -16 323q-1 83 5 155z M197 469q-9 -70 -9 -155q0 -95 11 -210q369 61 368 537v213q-180 -53 -266 -145.5t-104 -239.5z" />
<glyph unicode="h" horiz-adv-x="888" d="M90 0v94h88v1317h-88v94h281v-94h-90v-514q0 -119 -13 -209q37 123 160 203t291 90v-887h90v-94h-266v94h73v774q-61 -10 -115.5 -36.5t-106.5 -76.5t-82.5 -137.5t-30.5 -201.5v-322h75v-94h-266z" />
<glyph unicode="i" horiz-adv-x="477" d="M86 877v94h225v-877h86v-94h-278v94h88v783h-121zM207 1174v264h104v-264h-104z" />
<glyph unicode="j" horiz-adv-x="464" d="M-31 -299h4q78 0 147 83q71 85 70 269v824h-88v94h277v-94h-86v-824q0 -213 -91 -331.5t-222 -118.5zM190 1174v264h105v-264h-105z" />
<glyph unicode="k" horiz-adv-x="847" d="M80 0v94h100v1315h-88v94h281v-94h-90v-838q229 137 252 306h-72v94h270v-94h-92q-25 -147 -199 -297q127 -53 187.5 -168t77.5 -318h124v-94h-227q-6 215 -54 346t-177 180l-90 -51v-381h84v-94h-287z" />
<glyph unicode="l" horiz-adv-x="421" d="M55 1409v94h271v-94h-84v-1141q0 -176 141 -188l-16 -94q-106 4 -167 77.5t-61 204.5v1141h-84z" />
<glyph unicode="m" horiz-adv-x="1304" d="M86 877v94h225v-37q0 -45 -5 -134t-5 -100q70 270 407 271h15v-41q0 -12 -14 -228q82 269 410 269h20l-2 -877h88v-94h-273v94h82v783q-311 -33 -311 -469v-408h-100v877q-145 -18 -228.5 -123t-83.5 -348v-312h84v-94h-274v94h88v783h-123z" />
<glyph unicode="n" horiz-adv-x="919" d="M86 877v94h225v-103q0 -72 -14 -190q47 147 163 225q105 70 257 71q16 0 33 -1v-879h90v-94h-277v94h84v776q-147 -16 -241.5 -137t-94.5 -332v-307h84v-94h-278v94h92v783h-123z" />
<glyph unicode="o" horiz-adv-x="770" d="M68 348q0 170 80.5 311.5t197.5 217.5q-35 -5 -70 -5q-22 0 -44 1q-56 5 -89 18l27 82q88 -16 155 -19h28q46 0 74 5l90 17.5t101 14.5q76 -195 76 -428q0 -102 -18.5 -199.5t-57 -186.5t-112.5 -143t-170 -54q-111 0 -189.5 89t-78.5 279zM168 336q0 -119 49 -187.5 t125 -68.5q123 0 186.5 142.5t63.5 340.5q0 186 -51 328q-180 -57 -276.5 -215t-96.5 -340z" />
<glyph unicode="p" horiz-adv-x="866" d="M76 877v94h223v-127q0 -47 -4 -127t-4 -88q39 139 158.5 233t322.5 111q14 -166 14 -300q0 -106 -9 -194q-19 -197 -129.5 -310.5t-348.5 -168.5v-295h82v-94h-270v94h84v1172h-119zM295 242l4 -144q190 51 277.5 140.5t102.5 241.5q7 74 7 166q0 98 -8 218 q-384 -94 -384 -577q0 -22 1 -45z" />
<glyph unicode="q" horiz-adv-x="806" d="M93 485q22 193 149 310.5t411 193.5v-1286h84v-94h-266v94h80v381q0 68 8 184l8 117q-29 -156 -152 -273q-120 -114 -306 -114h-13q-13 157 -13 285q0 112 10 202zM186 104q180 49 271.5 188.5t93.5 405.5v160q-252 -80 -323 -242q-50 -115 -50 -325q0 -86 8 -187z" />
<glyph unicode="r" horiz-adv-x="755" d="M86 877v94h225v-123q-2 -35 -8 -99.5t-6 -74.5q31 139 148 221q112 78 280 78h16v-279h-104l2 172q-145 -25 -236.5 -136.5t-91.5 -330.5v-305h90v-94h-284v94h90v783h-121z" />
<glyph unicode="s" horiz-adv-x="681" d="M94 -27v258h107v-143q127 29 205.5 101.5t78.5 162.5q0 55 -38.5 89t-96 51.5t-115 38t-97.5 66.5t-40 118q0 268 455 276v-225h-104v125q-115 -4 -181.5 -48t-66.5 -118q0 -51 40 -82t96 -49.5t113.5 -40t97.5 -69.5t40 -122q0 -133 -128 -248.5t-366 -140.5z" />
<glyph unicode="t" horiz-adv-x="598" d="M72 877v94h96l8 184h92v-184h256v-94h-256v-775q125 53 199 197l90 -41q-74 -135 -162 -199.5t-229 -78.5v897h-94z" />
<glyph unicode="u" horiz-adv-x="976" d="M70 877v94h225v-860q162 25 263 162t101 380v224h-86v94h279v-94h-88v-783h125v-94h-230v158q0 68 15 182q-47 -176 -177 -259t-307 -85v881h-120z" />
<glyph unicode="v" horiz-adv-x="837" d="M80 877v94h272v-94h-80v-781q133 31 217 147.5t114 273.5q25 130 25 291q0 33 -1 69h-76v94h266v-94h-88q1 -31 1 -62q0 -107 -11 -203q-14 -123 -52 -239.5t-100.5 -199.5t-164 -134t-232.5 -51v889h-90z" />
<glyph unicode="w" horiz-adv-x="1157" d="M80 877v94h276v-94h-84v-773q78 25 133.5 84.5t85 132t45 184t19.5 208.5q3 64 3 147q0 42 -1 88h107v-839q90 29 149 98t88 175.5t39 223.5q9 97 9 222q0 25 -1 51h-84v92h275v-92h-88q0 -90 -2 -165t-13.5 -167t-32 -164t-57.5 -145.5t-87 -124t-125 -85t-169 -42.5 v241l4 144q-23 -164 -125 -272.5t-274 -112.5v891h-90z" />
<glyph unicode="x" horiz-adv-x="886" d="M51 0v94h109q2 147 49 244.5t149 196.5q-61 49 -95 83.5t-64.5 102t-34.5 156.5h-111v94h295v-94h-78q0 -102 38 -168t120 -121q88 59 132 125.5t46 163.5h-82v94h299v-94h-108q-6 -61 -23.5 -110.5t-54.5 -93.5t-60.5 -65.5t-74.5 -66.5q96 -80 144 -179.5t50 -267.5 h140v-94h-242q0 49 -2 74q-4 156 -42 251t-118 167q-166 -158 -168 -398h92v-94h-305z" />
<glyph unicode="y" horiz-adv-x="942" d="M80 877v94h227v-869q356 45 357 525v250h-89v94h291v-94h-98v-754q0 -145 -50 -252t-136 -162t-179.5 -80.5t-199.5 -27.5v209h104v-97q362 39 363 410q0 113 4 205q-72 -332 -471 -332v881h-123z" />
<glyph unicode="z" horiz-adv-x="804" d="M53 0l510 877h-356v-129h-105v223h637l-508 -877h373v148h105v-242h-656z" />
<glyph unicode="{" horiz-adv-x="409" d="M47 489v80q20 0 43 5.5t48.5 30t25.5 65.5q2 68 -5 327.5t-7 333.5q2 172 229 162l6 -96q-66 -6 -97.5 -34t-33.5 -112q0 -23 5 -274.5t3 -312.5q-2 -84 -112 -136q111 -45 112 -135q0 -20 -1 -161.5t-3 -281.5t-2 -145q0 -82 29.5 -107.5t99.5 -31.5l-6 -98 q-229 8 -229 162q0 35 7 311t5 348q0 57 -40 78.5t-77 21.5z" />
<glyph unicode="|" horiz-adv-x="411" d="M154 -258v1907h104v-1907h-104z" />
<glyph unicode="}" horiz-adv-x="405" d="M18 -336q70 6 99.5 31.5t29.5 107.5q0 4 -2 144.5t-3 282t-1 161.5q2 90 113 135q-111 51 -113 136q-2 61 3.5 313t5.5 274q-2 84 -34 112t-98 34l7 96q227 10 229 -162q0 -74 -7 -334t-5 -327q0 -41 25.5 -65.5t48 -30t42.5 -5.5v-80q-20 0 -42.5 -6t-48 -30.5 t-25.5 -63.5q-2 -72 5 -348.5t7 -310.5q0 -154 -229 -162z" />
<glyph unicode="~" horiz-adv-x="1079" d="M63 1331q131 203 271 203q70 0 140.5 -48t135 -96.5t117.5 -48.5q121 0 211 158l78 -35q-39 -82 -112 -150.5t-177 -68.5q-90 0 -213 94q-6 4 -25.5 19.5t-26.5 21.5t-24.5 17.5t-27 16.5t-23.5 12.5t-27.5 9.5t-25.5 2q-98 0 -203 -158z" />
<glyph unicode="&#xa1;" horiz-adv-x="360" d="M154 428h104v-1069h-104v1069zM154 709v262h104v-262h-104z" />
<glyph unicode="&#xa2;" horiz-adv-x="894" d="M51 471q0 217 92.5 379t245.5 186v150h96v-148q55 -8 99.5 -42.5t56.5 -82.5q-6 80 -6 103v39h104v-353h-104q0 240 -199 240q-131 0 -207.5 -146.5t-76.5 -320.5q0 -154 75.5 -270.5t218.5 -116.5q168 0 304 135l53 -78q-125 -141 -320 -151v-144h-94v146 q-150 18 -244 141t-94 334z" />
<glyph unicode="&#xa3;" horiz-adv-x="1032" d="M68 719v102h194q-2 348 116 475t376 115l-23 -102q-209 12 -283.5 -97.5t-74.5 -390.5h250v-102h-250v-617h495v148h111v-250h-875v102h158v617h-194z" />
<glyph unicode="&#xa4;" horiz-adv-x="1163" d="M59 819l27 86h156q53 248 186 377t299 129q82 0 162 -43t127 -100l-41 -94q-10 16 -29.5 38.5t-84 61.5t-134.5 39q-135 0 -229.5 -113t-139.5 -295h476l-29 -86h-467q-12 -102 -16 -153h512l-27 -88h-483q6 -242 100 -373t246 -131q209 0 340 239l86 -41 q-162 -297 -426 -297q-201 0 -324 149.5t-131 453.5h-154l25 88h129q0 72 10 153h-166z" />
<glyph unicode="&#xa5;" horiz-adv-x="1140" d="M29 1372v103h395v-103h-141q0 -184 83 -360t205 -285q133 121 209 289t76 356h-141v103h397v-103h-145q0 -350 -260 -639h292v-90h-376v-143h376v-82h-376v-316h157v-102h-422v102h156v316h-377v82h377v143h-377v90h295q-260 283 -260 639h-143z" />
<glyph unicode="&#xa6;" horiz-adv-x="399" d="M147 -258v635h105v-635h-105zM147 1012v637h105v-637h-105z" />
<glyph unicode="&#xa7;" horiz-adv-x="1003" d="M102 844q0 51 24 114.5t56 106.5q-41 66 -41 174q0 133 100.5 235.5t256.5 102.5q111 0 198.5 -48t120.5 -110l-69 -76q-76 129 -254 130q-104 0 -174 -72t-70 -172q0 -74 53 -144q47 -59 199 -143q201 -113 260 -162q139 -113 139 -252t-76 -260q35 -68 35 -155 q0 -102 -43 -183.5t-109.5 -123.5t-133 -63.5t-125.5 -21.5q-195 0 -328 132l57 84q139 -115 271 -115q39 0 86 14t97 44t84 89.5t34 139.5q0 111 -70 180t-201 137q-8 4 -50 26.5t-55.5 28.5t-50 28.5t-51 34t-44 35t-43 41t-33 45t-27.5 53t-15.5 58.5t-7.5 68zM213 840 q0 -51 21.5 -95.5t66.5 -82t83 -61t103 -60.5q197 -102 265 -176q37 82 36 155q0 96 -73.5 165t-216.5 144q-193 100 -244 150q-41 -67 -41 -139z" />
<glyph unicode="&#xa8;" horiz-adv-x="434" d="M0 1174v239h104v-239h-104zM330 1174v239h104v-239h-104z" />
<glyph unicode="&#xa9;" horiz-adv-x="1382" d="M72 831q0 272 178 460t444 188q262 0 439.5 -187.5t177.5 -460.5q0 -260 -179.5 -452.5t-437.5 -192.5q-264 0 -443 191.5t-179 453.5zM158 831q0 -227 153.5 -395t382.5 -168q227 0 380 168t153 395q0 236 -151.5 401t-381.5 165q-231 0 -383.5 -166.5t-152.5 -399.5z M391 807q0 168 82 295t219 127q115 0 146 -90q-6 49 -7 67v29h84v-277h-84l-2 54q0 59 -35.5 96t-101.5 37q-98 0 -156.5 -103.5t-58.5 -230.5q0 -119 59.5 -205t165.5 -86q102 0 195 92l43 -61q-98 -111 -254 -111q-129 0 -212 103.5t-83 263.5z" />
<glyph unicode="&#xaa;" horiz-adv-x="751" d="M76.5 1017q25.5 175 139.5 275.5t372 169.5v-805h100v-86h-194v158q0 35 6 101.5t6 68.5q-35 -145 -150.5 -239.5t-277.5 -92.5q-27 275 -1.5 450zM160 929.5q-4 -110.5 6 -265.5q156 25 242 183.5t86 377.5v116q-121 -39 -192 -91t-104.5 -131t-37.5 -189.5z" />
<glyph unicode="&#xab;" horiz-adv-x="1050" d="M29 553l512 502l69 -66l-450 -436l452 -434l-71 -66zM399 553l514 502l66 -72l-451 -430l455 -434l-70 -66z" />
<glyph unicode="&#xac;" horiz-adv-x="839" d="M63 539v96h713v-283h-104v187h-609z" />
<glyph unicode="&#xad;" horiz-adv-x="784" d="M80 512v100h625v-100h-625z" />
<glyph unicode="&#xae;" horiz-adv-x="1470" d="M84 829q0 279 189.5 469.5t465.5 190.5q270 0 458.5 -190.5t188.5 -469.5q0 -266 -190 -456.5t-461 -190.5q-274 0 -462.5 190.5t-188.5 456.5zM178 827q0 -223 164 -387t397 -164q231 0 391 163t160 388q0 233 -158.5 400.5t-392 167.5t-397.5 -167.5t-164 -400.5z M469 461v76h90v628h-90v78h248q133 0 206.5 -61.5t73.5 -169.5q0 -76 -55 -126t-119 -52q55 -10 88 -71t41.5 -115t10.5 -111h79v-76h-153q0 55 -1 74.5t-5 71.5t-14.5 76t-26 56.5t-43 46t-64.5 13.5h-96v-262h80v-76h-250zM639 870h98q78 0 129.5 37t51.5 107 q0 82 -62.5 123t-216.5 28v-295z" />
<glyph unicode="&#xaf;" horiz-adv-x="583" d="M0 1241q23 51 69 97t103 46q55 0 128 -52t101 -52q10 0 20.5 2t20 6t16.5 8t15 13l13 13q5 5 13.5 14.5t10.5 12.5t10 13l6 10l58 -29q-66 -141 -178 -141q-49 0 -123 53.5t-109 53.5q-12 0 -24.5 -5.5t-21.5 -10.5t-20.5 -17t-16.5 -18.5t-17.5 -22.5t-14.5 -21z" />
<glyph unicode="&#xb0;" horiz-adv-x="532" d="M0 1217q0 113 76 192.5t186 79.5q113 0 191.5 -80t78.5 -192q0 -106 -79.5 -187.5t-190.5 -81.5q-109 0 -185.5 80t-76.5 189zM68 1217q0 -82 57 -141.5t139 -59.5q84 0 143.5 59.5t59.5 141t-59.5 144t-143.5 62.5q-82 0 -139 -61t-57 -145z" />
<glyph unicode="&#xb1;" horiz-adv-x="839" d="M63 -25h713v-94h-713v94zM76 520v94h291v344h104v-344h293v-94h-293v-350h-104v350h-291z" />
<glyph unicode="&#xb2;" horiz-adv-x="643" d="M68 879q18 244 204 391q4 2 27 20.5t29 24.5t25.5 23.5t27.5 27.5t22.5 29.5t20.5 36t13 38t9 43.5q-188 29 -282 -124l-72 41q55 111 161.5 146.5t285.5 12.5q2 -78 -10.5 -135t-50.5 -106.5t-58.5 -67.5t-77.5 -68q-70 -55 -108.5 -108t-49.5 -137h371v-88h-487z" />
<glyph unicode="&#xb3;" horiz-adv-x="647" d="M63 918q207 6 304.5 65t97.5 150q0 61 -42 94t-99.5 30.5t-116.5 -18.5l-17 72q121 29 187.5 77t97.5 128h-325v75h434q-8 -86 -65.5 -168t-145.5 -108q98 -2 144 -58.5t46 -121.5q0 -121 -115.5 -208t-363.5 -87z" />
<glyph unicode="&#xb4;" horiz-adv-x="434" d="M41 1266l278 190l74 -86l-293 -170z" />
<glyph unicode="&#xb5;" horiz-adv-x="966" d="M76 874v97h225v-871q150 37 260.5 195t110.5 412v167h-84v97h274v-97h-88v-778h111v-96h-213v111l14 280q-23 -139 -136.5 -249.5t-248.5 -141.5v-289h102v-94h-309v94h105v1163h-123z" />
<glyph unicode="&#xb6;" horiz-adv-x="1003" d="M97 894q-5 120 37 211t139.5 145.5t238.5 54.5v-1518h-266v102h157v856q-84 -90 -245 -102q-56 131 -61 251zM643 1305h268v-103h-157v-1415h-109z" />
<glyph unicode="&#xb7;" horiz-adv-x="278" d="M84 563v266h111v-266h-111z" />
<glyph unicode="&#xb8;" horiz-adv-x="286" d="M0 -317q125 10 159 67t15 178q63 -6 105 11q23 -162 -39 -237t-230 -89z" />
<glyph unicode="&#xb9;" horiz-adv-x="399" d="M35 1524q195 55 268 69v-714h-98v600l-139 -35z" />
<glyph unicode="&#xba;" horiz-adv-x="753" d="M47 907q0 156 77 287t185 201q-51 -8 -105 -3t-83 17l24 76q139 -18 178 -18.5t115 15t121 19.5q76 -195 76 -395q0 -94 -17.5 -185.5t-55.5 -174t-105.5 -133t-157.5 -50.5q-100 0 -176 85t-76 259zM143 897q0 -111 46.5 -174.5t115.5 -63.5q113 0 171.5 131.5 t58.5 315.5q0 174 -48 303q-166 -51 -255 -197.5t-89 -314.5z" />
<glyph unicode="&#xbb;" horiz-adv-x="1050" d="M68 119l454 434l-450 430l65 72l514 -502l-514 -500zM438 119l453 434l-451 436l70 66l512 -502l-512 -500z" />
<glyph unicode="&#xbc;" horiz-adv-x="1314" d="M76 1284q195 53 270 66v-715h-102v602l-138 -35zM80 20l1063 1422l76 -66l-1057 -1415zM729 150q4 78 12.5 133t33 126.5t64.5 124t111.5 102.5t169.5 83v-483h119v-86h-119v-150h-96v150h-295zM817 236h207v358q-189 -112 -207 -358z" />
<glyph unicode="&#xbd;" horiz-adv-x="1404" d="M78 20l1061 1420l75 -64l-1056 -1415zM96 1384q195 55 269 70v-715h-99v600l-139 -34zM846 35q18 244 205 391q4 2 26.5 20.5t28.5 24.5t25.5 23.5t27.5 27.5t22.5 29.5t20.5 36t13.5 38t9.5 44.5q-188 29 -283 -125l-72 41q55 111 162 146.5t285 12.5q2 -78 -10.5 -135 t-50 -106t-58 -67.5t-78.5 -67.5q-70 -55 -108.5 -108.5t-48.5 -137.5h370v-88h-487z" />
<glyph unicode="&#xbe;" horiz-adv-x="1409" d="M72 717q205 4 303 64.5t98 150.5q0 61 -42 93t-99.5 30t-116.5 -19l-16 72q119 29 186.5 78t97.5 129h-325v76h434q-8 -88 -65.5 -170t-145.5 -107q98 -2 144 -59.5t46 -120.5q0 -121 -115.5 -208t-363.5 -87zM176 20l1061 1422l76 -66l-1057 -1415zM823 150 q6 78 13.5 132t33 127.5t64.5 125t110.5 101.5t169.5 83v-483h119v-86h-119v-150h-96v150h-295zM911 236h207v358q-184 -110 -207 -358z" />
<glyph unicode="&#xbf;" horiz-adv-x="745" d="M35 -203q0 72 35.5 127.5t86 92t100.5 70.5t86 78t36 95q0 88 -80 135l43 86q55 -25 96 -79t41 -136q0 -72 -35.5 -130t-86 -96t-101.5 -73t-87 -76t-36 -88q0 -78 111.5 -149.5t220.5 -91.5v129h102v-262q-70 12 -152.5 39.5t-172.5 72.5t-148.5 112.5t-58.5 143.5z M305 702v267h105v-267h-105z" />
<glyph unicode="&#xc0;" d="M10 0v102h150l415 1301h-153v102h342l444 -1403h150v-102h-414v102h152l-150 465h-522l-150 -465h148v-102h-412zM446 1761l74 86l279 -190l-60 -70zM453 668h460l-229 735z" />
<glyph unicode="&#xc1;" d="M10 0v102h150l415 1301h-153v102h342l444 -1403h150v-102h-414v102h152l-150 465h-522l-150 -465h148v-102h-412zM453 668h460l-229 735zM543 1657l278 190l74 -86l-293 -170z" />
<glyph unicode="&#xc2;" d="M10 0v102h150l415 1301h-153v102h342l444 -1403h150v-102h-414v102h152l-150 465h-522l-150 -465h148v-102h-412zM397 1634l252 228l252 -228l-57 -49l-195 154l-192 -154zM453 668h460l-229 735z" />
<glyph unicode="&#xc3;" d="M10 0v102h150l415 1301h-153v102h342l444 -1403h150v-102h-414v102h152l-150 465h-522l-150 -465h148v-102h-412zM348 1626q23 51 69 97t103 46q55 0 128 -52t102 -52q10 0 20 2t19.5 6t16.5 8.5t15 12.5l14 13q5 5 13 14.5t10 12.5t10 13l6 10l58 -28 q-66 -141 -178 -142q-49 0 -123 53.5t-109 53.5q-12 0 -24.5 -5.5t-21.5 -10.5t-20.5 -17t-16.5 -18.5t-17 -22.5t-14 -21zM453 668h460l-229 735z" />
<glyph unicode="&#xc4;" d="M10 0v102h150l415 1301h-153v102h342l444 -1403h150v-102h-414v102h152l-150 465h-522l-150 -465h148v-102h-412zM440 1587v240h105v-240h-105zM453 668h460l-229 735zM770 1587v240h104v-240h-104z" />
<glyph unicode="&#xc5;" d="M10 0v102h150l415 1301h-153v102h342l444 -1403h150v-102h-414v102h152l-150 465h-522l-150 -465h148v-102h-412zM453 668h460l-229 735zM498 1743q0 74 48 124t120 50q70 0 120 -51t50 -123q0 -70 -50.5 -119t-119.5 -49q-72 0 -120 49t-48 119zM565 1743 q0 -43 29 -70.5t72 -27.5q41 0 69.5 29.5t28.5 68.5q0 43 -27.5 72.5t-70.5 29.5t-72 -29.5t-29 -72.5z" />
<glyph unicode="&#xc6;" horiz-adv-x="1890" d="M6 0v104h164l565 1303h-180v102h1225v-260h-115v158h-633v-526h637v-105h-637v-672h633v154h115v-258h-862l2 502h-459l-168 -398h168v-104h-455zM508 606h410v807h-68z" />
<glyph unicode="&#xc7;" horiz-adv-x="1034" d="M72 647q0 188 32.5 339t85 244t122 155.5t137 87t139.5 24.5q188 0 239 -145l-2 98v63h107v-446h-111v41q0 139 -61.5 213t-173.5 74q-170 0 -288 -207t-116 -537q0 -117 19.5 -217t59.5 -181t108.5 -128t156.5 -47q205 0 336 260l92 -47q-162 -315 -428 -316 q-84 0 -158.5 32t-144 103.5t-110.5 209t-41 327.5zM330 -391q125 10 158.5 67.5t15.5 178.5q63 -6 104 10q23 -162 -38.5 -236.5t-229.5 -89.5z" />
<glyph unicode="&#xc8;" horiz-adv-x="1204" d="M117 1374v103h977v-258h-111v155h-596v-506h604v-102h-604v-664h596v152h111v-254h-975v102h157v1272h-159zM479 1753l74 86l278 -190l-59 -70z" />
<glyph unicode="&#xc9;" horiz-adv-x="1204" d="M117 1374v103h977v-258h-111v155h-596v-506h604v-102h-604v-664h596v152h111v-254h-975v102h157v1272h-159zM514 1647l279 190l73 -86l-293 -170z" />
<glyph unicode="&#xca;" horiz-adv-x="1204" d="M117 1374v103h977v-258h-111v155h-596v-506h604v-102h-604v-664h596v152h111v-254h-975v102h157v1272h-159zM412 1632l252 228l251 -228l-57 -49l-194 154l-193 -154z" />
<glyph unicode="&#xcb;" horiz-adv-x="1204" d="M117 1374v103h977v-258h-111v155h-596v-506h604v-102h-604v-664h596v152h111v-254h-975v102h157v1272h-159zM432 1579v240h105v-240h-105zM762 1579v240h104v-240h-104z" />
<glyph unicode="&#xcc;" horiz-adv-x="655" d="M115 0v102h155v1272h-155v103h426v-103h-160v-1272h160v-102h-426zM152 1765l73 86l279 -190l-60 -70z" />
<glyph unicode="&#xcd;" horiz-adv-x="655" d="M115 0v102h155v1272h-155v103h426v-103h-160v-1272h160v-102h-426zM154 1665l278 190l74 -86l-293 -170z" />
<glyph unicode="&#xce;" horiz-adv-x="737" d="M117 1624l252 227l252 -227l-58 -49l-194 154l-193 -154zM158 0v102h155v1272h-155v103h426v-103h-160v-1272h160v-102h-426z" />
<glyph unicode="&#xcf;" horiz-adv-x="673" d="M121 1610v239h104v-239h-104zM123 0v102h156v1272h-156v103h426v-103h-160v-1272h160v-102h-426zM451 1610v239h104v-239h-104z" />
<glyph unicode="&#xd0;" horiz-adv-x="583" d="M0 1241q23 51 69 97t103 46q55 0 128 -52t101 -52q10 0 20.5 2t20 6t16.5 8t15 13l13 13q5 5 13.5 14.5t10.5 12.5t10 13l6 10l58 -29q-66 -141 -178 -141q-49 0 -123 53.5t-109 53.5q-12 0 -24.5 -5.5t-21.5 -10.5t-20.5 -17t-16.5 -18.5t-17.5 -22.5t-14.5 -21z" />
<glyph unicode="&#xd1;" horiz-adv-x="1445" d="M117 0v102h157v1272h-157v103h334l632 -1260l-6 154v1003h-157v103h419v-103h-155v-1386h-109l-698 1392l4 -129v-1149h158v-102h-422zM438 1640q23 51 69 97.5t103 46.5q55 0 128 -52.5t102 -52.5q10 0 20 2t19.5 6.5t16.5 8.5t15 12l14 13q5 5 13 14.5t10 12.5t10 13 l7 11l57 -29q-66 -141 -178 -141q-49 0 -123 53t-109 53q-12 0 -24.5 -5t-21.5 -10t-20 -17.5t-16.5 -18.5t-17.5 -22.5t-14 -20.5z" />
<glyph unicode="&#xd2;" horiz-adv-x="1146" d="M76 719q0 354 144.5 575.5t367.5 221.5t353 -221.5t130 -575.5q0 -348 -140 -540.5t-368 -192.5q-219 0 -353 200.5t-134 532.5zM186 719q0 -311 111 -471t266 -160q166 0 282 155.5t116 475.5q0 330 -108 512t-265 182q-162 0 -282 -183t-120 -511zM385 1755l74 86 l278 -190l-59 -70z" />
<glyph unicode="&#xd3;" horiz-adv-x="1146" d="M76 719q0 354 144.5 575.5t367.5 221.5t353 -221.5t130 -575.5q0 -348 -140 -540.5t-368 -192.5q-219 0 -353 200.5t-134 532.5zM186 719q0 -311 111 -471t266 -160q166 0 282 155.5t116 475.5q0 330 -108 512t-265 182q-162 0 -282 -183t-120 -511zM469 1647l279 190 l73 -86l-293 -170z" />
<glyph unicode="&#xd4;" horiz-adv-x="1146" d="M76 719q0 354 144.5 575.5t367.5 221.5t353 -221.5t130 -575.5q0 -348 -140 -540.5t-368 -192.5q-219 0 -353 200.5t-134 532.5zM186 719q0 -311 111 -471t266 -160q166 0 282 155.5t116 475.5q0 330 -108 512t-265 182q-162 0 -282 -183t-120 -511zM324 1642l251 228 l252 -228l-57 -49l-195 154l-192 -154z" />
<glyph unicode="&#xd5;" horiz-adv-x="1146" d="M76 719q0 354 144.5 575.5t367.5 221.5t353 -221.5t130 -575.5q0 -348 -140 -540.5t-368 -192.5q-219 0 -353 200.5t-134 532.5zM186 719q0 -311 111 -471t266 -160q166 0 282 155.5t116 475.5q0 330 -108 512t-265 182q-162 0 -282 -183t-120 -511zM291 1638 q23 51 69 97.5t103 46.5q55 0 128 -52.5t101 -52.5q10 0 20.5 2t19.5 6.5t16.5 8.5t15.5 12l13 13q5 5 13.5 14.5t10.5 12.5t10 13l6 10l57 -28q-66 -141 -178 -142q-49 0 -122.5 53.5t-108.5 53.5q-12 0 -24.5 -5t-21.5 -10t-20.5 -17.5t-16.5 -18.5t-17.5 -22.5 t-14.5 -20.5z" />
<glyph unicode="&#xd6;" horiz-adv-x="1146" d="M76 719q0 354 144.5 575.5t367.5 221.5t353 -221.5t130 -575.5q0 -348 -140 -540.5t-368 -192.5q-219 0 -353 200.5t-134 532.5zM186 719q0 -311 111 -471t266 -160q166 0 282 155.5t116 475.5q0 330 -108 512t-265 182q-162 0 -282 -183t-120 -511zM367 1599v240h104 v-240h-104zM696 1599v240h105v-240h-105z" />
<glyph unicode="&#xd7;" horiz-adv-x="768" d="M63 287l254 252l-251 243l69 74l250 -250l246 250l74 -72l-254 -245l251 -252l-73 -70l-246 254l-248 -254z" />
<glyph unicode="&#xd8;" horiz-adv-x="1146" d="M76 719q0 354 144.5 575.5t367.5 221.5q94 0 178 -46l59 164h111l-82 -231q102 -100 159.5 -278.5t57.5 -405.5q0 -348 -140 -540.5t-368 -192.5q-102 0 -186 47l-84 -242h-111l105 303q-211 191 -211 625zM186 719q0 -344 140 -510l405 1159q-72 45 -143 45 q-162 0 -282 -183t-120 -511zM412 133q70 -45 151 -45q166 0 282 155.5t116 475.5q0 379 -148 559z" />
<glyph unicode="&#xd9;" horiz-adv-x="1361" d="M94 1374v103h275v-1360q90 12 191.5 80.5t194.5 184.5t153.5 300t60.5 399v293h-142v103h410v-103h-158v-1272h166v-102h-276v602q-70 -270 -275 -437t-436 -167v1376h-164zM420 1765l74 86l278 -190l-59 -70z" />
<glyph unicode="&#xda;" horiz-adv-x="1361" d="M94 1374v103h275v-1360q90 12 191.5 80.5t194.5 184.5t153.5 300t60.5 399v293h-142v103h410v-103h-158v-1272h166v-102h-276v602q-70 -270 -275 -437t-436 -167v1376h-164zM504 1647l278 190l74 -86l-293 -170z" />
<glyph unicode="&#xdb;" horiz-adv-x="1386" d="M119 1374v103h274v-1360q90 12 191.5 80.5t194.5 184.5t153.5 300t60.5 399v293h-141v103h410v-103h-158v-1272h166v-102h-277v602q-70 -270 -274.5 -437t-435.5 -167v1376h-164zM430 1642l252 228l252 -228l-57 -49l-195 154l-193 -154z" />
<glyph unicode="&#xdc;" horiz-adv-x="1361" d="M94 1374v103h275v-1360q90 12 191.5 80.5t194.5 184.5t153.5 300t60.5 399v293h-142v103h410v-103h-158v-1272h166v-102h-276v602q-70 -270 -275 -437t-436 -167v1376h-164zM451 1606v239h104v-239h-104zM780 1606v239h105v-239h-105z" />
<glyph unicode="&#xdd;" horiz-adv-x="1126" d="M20 1374v103h396v-103h-144q4 -201 84 -400.5t205 -318.5q129 119 208 313.5t81 405.5h-141v103h397v-103h-145q-2 -233 -98.5 -446t-248.5 -357v-469h158v-102h-422v102h156v469q-150 143 -246 356.5t-98 446.5h-142zM465 1647l278 190l74 -86l-293 -170z" />
<glyph unicode="&#xde;" horiz-adv-x="583" d="M0 1241q23 51 69 97t103 46q55 0 128 -52t101 -52q10 0 20.5 2t20 6t16.5 8t15 13l13 13q5 5 13.5 14.5t10.5 12.5t10 13l6 10l58 -29q-66 -141 -178 -141q-49 0 -123 53.5t-109 53.5q-12 0 -24.5 -5.5t-21.5 -10.5t-20.5 -17t-16.5 -18.5t-17.5 -22.5t-14.5 -21z" />
<glyph unicode="&#xdf;" horiz-adv-x="952" d="M-47 -211q74 -2 141.5 88t67.5 250v674q0 362 241 545q186 150 453 149q0 -213 -44 -318.5t-161 -222.5q-16 -16 -53 -51t-51.5 -51t-36 -43t-28.5 -50.5t-7 -49.5q0 -49 40 -74t98.5 -36t115.5 -26.5t97 -58.5t40 -119q0 -182 -144 -294.5t-337 -125.5v277h98v-164 q127 25 205 106.5t78 180.5q0 51 -41 78.5t-98.5 40t-115.5 28t-99 61.5t-41 126q0 53 23.5 101t43 71.5t85 85t85.5 82.5q80 80 111 159.5t33 186.5q-53 -8 -105.5 -24.5t-125 -59.5t-126 -104.5t-91.5 -167t-38 -238.5v-672q0 -184 -95 -312t-218 -128v100z" />
<glyph unicode="&#xe0;" horiz-adv-x="854" d="M93.5 490.5q23.5 193.5 150.5 306t418 192.5v-895h112v-94h-217v180q0 27 3 70t6 75.5t3 39.5q-39 -160 -168 -265.5t-303 -103.5q-28 301 -4.5 494.5zM187 406.5q-3 -119.5 8 -291.5q174 25 268 185.5t94 399.5v156q-135 -45 -212 -102.5t-116 -142.5t-42 -204.5z M190 1337l74 86l279 -190l-60 -70z" />
<glyph unicode="&#xe1;" horiz-adv-x="854" d="M93.5 490.5q23.5 193.5 150.5 306t418 192.5v-895h112v-94h-217v180q0 27 3 70t6 75.5t3 39.5q-39 -160 -168 -265.5t-303 -103.5q-28 301 -4.5 494.5zM187 406.5q-3 -119.5 8 -291.5q174 25 268 185.5t94 399.5v156q-135 -45 -212 -102.5t-116 -142.5t-42 -204.5z M246 1233l278 190l74 -86l-293 -170z" />
<glyph unicode="&#xe2;" horiz-adv-x="854" d="M93.5 490.5q23.5 193.5 150.5 306t418 192.5v-895h112v-94h-217v180q0 27 3 70t6 75.5t3 39.5q-39 -160 -168 -265.5t-303 -103.5q-28 301 -4.5 494.5zM164 1227l252 227l252 -227l-58 -49l-194 153l-193 -153zM187 406.5q-3 -119.5 8 -291.5q174 25 268 185.5t94 399.5 v156q-135 -45 -212 -102.5t-116 -142.5t-42 -204.5z" />
<glyph unicode="&#xe3;" horiz-adv-x="856" d="M95.5 490.5q23.5 193.5 150.5 306t418 192.5v-895h112v-94h-217v180q0 27 3 70t6 75.5t3 39.5q-39 -160 -168 -265.5t-303 -103.5q-28 301 -4.5 494.5zM123 1212q23 51 69 97.5t103 46.5q55 0 128 -52.5t101 -52.5q10 0 20.5 2t19.5 6.5t16.5 8.5t15.5 12l13 13 q5 5 13.5 14.5t10.5 12.5t10 13l6 10l58 -28q-66 -141 -179 -141q-49 0 -122.5 53t-108.5 53q-12 0 -24.5 -5t-21.5 -10t-20.5 -17.5t-16.5 -18.5t-17.5 -22.5t-14.5 -20.5zM189.5 406.5q-3.5 -119.5 7.5 -291.5q174 25 268 185.5t94 399.5v156q-135 -45 -212 -102.5 t-115.5 -142.5t-42 -204.5z" />
<glyph unicode="&#xe4;" horiz-adv-x="854" d="M93.5 490.5q23.5 193.5 150.5 306t418 192.5v-895h112v-94h-217v180q0 27 3 70t6 75.5t3 39.5q-39 -160 -168 -265.5t-303 -103.5q-28 301 -4.5 494.5zM187 406.5q-3 -119.5 8 -291.5q174 25 268 185.5t94 399.5v156q-135 -45 -212 -102.5t-116 -142.5t-42 -204.5z M199 1165v240h104v-240h-104zM528 1165v240h105v-240h-105z" />
<glyph unicode="&#xe5;" horiz-adv-x="854" d="M93.5 490.5q23.5 193.5 150.5 306t418 192.5v-895h112v-94h-217v180q0 27 3 70t6 75.5t3 39.5q-39 -160 -168 -265.5t-303 -103.5q-28 301 -4.5 494.5zM187 406.5q-3 -119.5 8 -291.5q174 25 268 185.5t94 399.5v156q-135 -45 -212 -102.5t-116 -142.5t-42 -204.5z M256 1286q0 74 48 124t120 50q70 0 120 -51t50 -123q0 -70 -50 -119t-120 -49q-72 0 -120 49t-48 119zM324 1286q0 -41 28.5 -69.5t71.5 -28.5q41 0 69.5 29.5t28.5 68.5q0 43 -27.5 73t-70.5 30t-71.5 -30t-28.5 -73z" />
<glyph unicode="&#xe6;" horiz-adv-x="1216" d="M90 236.5q-2 107.5 20.5 183.5t56.5 128t94.5 88t119.5 57.5t149 41.5q-4 119 -100 151t-272 -40l-39 88q123 53 218 61.5t150.5 -17.5t91 -72t47 -94t7.5 -95q29 98 150.5 172t322.5 94q59 -649 -471 -649q0 -94 16 -242q156 4 237 43t150 141l88 -51 q-98 -137 -214.5 -182t-354.5 -45q-10 74 -16 184v68q-31 -111 -149 -185.5t-275 -74.5q-25 139 -27 246.5zM207 94q109 18 180.5 71.5t104 134.5t44 160t9.5 177q-215 -25 -304 -150t-34 -393zM637 424q193 10 289 108.5t84 331.5q-184 -33 -278.5 -135t-94.5 -305z" />
<glyph unicode="&#xe7;" horiz-adv-x="733" d="M85 487.5q11 202.5 141 326.5t415 171v-295h-102v172q-178 -41 -261 -135t-93.5 -251t10.5 -384q145 4 225 45t139 158l86 -47q-72 -145 -186.5 -200.5t-354.5 -55.5q-30 293 -19 495.5zM147 -354q125 10 159 67.5t16 177.5q63 -6 104 11q23 -162 -38.5 -237t-229.5 -89z " />
<glyph unicode="&#xe8;" horiz-adv-x="780" d="M86 459q27 313 256 436q129 70 330 88q51 -633 -484 -639q0 -141 17 -252q156 4 243 43t154 141l88 -51q-94 -137 -218 -185t-366 -48q-30 340 -20 467zM190 434q387 6 379 434q-383 -65 -379 -434zM219 1337l74 86l278 -190l-59 -70z" />
<glyph unicode="&#xe9;" horiz-adv-x="780" d="M86 459q27 313 256 436q129 70 330 88q51 -633 -484 -639q0 -141 17 -252q156 4 243 43t154 141l88 -51q-94 -137 -218 -185t-366 -48q-30 340 -20 467zM190 434q387 6 379 434q-383 -65 -379 -434zM244 1233l278 190l74 -86l-293 -170z" />
<glyph unicode="&#xea;" horiz-adv-x="780" d="M86 459q27 313 256 436q129 70 330 88q51 -633 -484 -639q0 -141 17 -252q156 4 243 43t154 141l88 -51q-94 -137 -218 -185t-366 -48q-30 340 -20 467zM145 1231l252 227l252 -227l-57 -49l-195 153l-192 -153zM190 434q387 6 379 434q-383 -65 -379 -434z" />
<glyph unicode="&#xeb;" horiz-adv-x="780" d="M86 459q27 313 256 436q129 70 330 88q51 -633 -484 -639q0 -141 17 -252q156 4 243 43t154 141l88 -51q-94 -137 -218 -185t-366 -48q-30 340 -20 467zM190 434q387 6 379 434q-383 -65 -379 -434zM195 1165v240h104v-240h-104zM524 1165v240h105v-240h-105z" />
<glyph unicode="&#xec;" horiz-adv-x="485" d="M66 1337l73 86l279 -190l-60 -70zM92 874v97h225v-877h86v-94h-278v94h88v780h-121z" />
<glyph unicode="&#xed;" horiz-adv-x="491" d="M84 874v97h225v-877h86v-94h-278v94h88v780h-121zM94 1237l279 190l73 -86l-292 -170z" />
<glyph unicode="&#xee;" horiz-adv-x="577" d="M41 1231l252 227l252 -227l-58 -49l-194 153l-193 -153zM143 874v97h226v-877h86v-94h-279v94h88v780h-121z" />
<glyph unicode="&#xef;" horiz-adv-x="546" d="M55 1165v240h105v-240h-105zM129 874v97h225v-877h86v-94h-278v94h88v780h-121zM385 1165v240h104v-240h-104z" />
<glyph unicode="&#xf0;" horiz-adv-x="583" d="M0 1241q23 51 69 97t103 46q55 0 128 -52t101 -52q10 0 20.5 2t20 6t16.5 8t15 13l13 13q5 5 13.5 14.5t10.5 12.5t10 13l6 10l58 -29q-66 -141 -178 -141q-49 0 -123 53.5t-109 53.5q-12 0 -24.5 -5.5t-21.5 -10.5t-20.5 -17t-16.5 -18.5t-17.5 -22.5t-14.5 -21z" />
<glyph unicode="&#xf1;" horiz-adv-x="919" d="M86 877v94h225v-103q0 -72 -14 -190q47 147 162.5 225t290.5 70v-879h90v-94h-277v94h84v776q-147 -16 -241.5 -137t-94.5 -332v-307h84v-94h-278v94h92v783h-123zM176 1225q23 51 69 97t103 46q55 0 128 -52t102 -52q10 0 20 2t19.5 6t16.5 8t15 12l14 14q5 5 13 14 t10 12t10 14l6 10l58 -29q-66 -141 -178 -141q-49 0 -123 53t-109 53q-12 0 -24.5 -5t-21.5 -10t-20.5 -17.5t-16.5 -18.5t-17 -22.5t-14 -20.5z" />
<glyph unicode="&#xf2;" horiz-adv-x="770" d="M68 348q0 170 80.5 311.5t197.5 217.5q-57 -8 -113.5 -3t-89.5 17l27 82q88 -16 154.5 -18.5t102.5 5t90 17.5t101 14q76 -195 76 -428q0 -102 -18.5 -199.5t-57 -186.5t-112.5 -143t-170 -54q-111 0 -189.5 89t-78.5 279zM168 336q0 -119 49 -187.5t125 -68.5 q123 0 186.5 142.5t63.5 340.5q0 186 -51 328q-180 -57 -276.5 -215t-96.5 -340zM209 1337l74 86l278 -190l-59 -70z" />
<glyph unicode="&#xf3;" horiz-adv-x="770" d="M68 348q0 170 80.5 311.5t197.5 217.5q-57 -8 -113.5 -3t-89.5 17l27 82q88 -16 154.5 -18.5t102.5 5t90 17.5t101 14q76 -195 76 -428q0 -102 -18.5 -199.5t-57 -186.5t-112.5 -143t-170 -54q-111 0 -189.5 89t-78.5 279zM168 336q0 -119 49 -187.5t125 -68.5 q123 0 186.5 142.5t63.5 340.5q0 186 -51 328q-180 -57 -276.5 -215t-96.5 -340zM324 1233l278 190l74 -86l-293 -170z" />
<glyph unicode="&#xf4;" horiz-adv-x="770" d="M68 348q0 170 80.5 311.5t197.5 217.5q-57 -8 -113.5 -3t-89.5 17l27 82q88 -16 154.5 -18.5t102.5 5t90 17.5t101 14q76 -195 76 -428q0 -102 -18.5 -199.5t-57 -186.5t-112.5 -143t-170 -54q-111 0 -189.5 89t-78.5 279zM143 1231l252 227l252 -227l-57 -49l-195 153 l-192 -153zM168 336q0 -119 49 -187.5t125 -68.5q123 0 186.5 142.5t63.5 340.5q0 186 -51 328q-180 -57 -276.5 -215t-96.5 -340z" />
<glyph unicode="&#xf5;" horiz-adv-x="768" d="M68 348q0 170 80.5 311.5t197.5 217.5q-57 -8 -113.5 -3t-89.5 17l27 82q88 -16 154.5 -18.5t102.5 5t90 17.5t101 14q76 -195 76 -428q0 -102 -18.5 -199.5t-57 -186.5t-112.5 -143t-170 -54q-111 0 -189.5 89t-78.5 279zM121 1241q23 51 69 97t103 46q55 0 128 -52 t101 -52q10 0 20.5 2t19.5 6t16.5 8t15.5 13l13 13q5 5 13.5 14.5t10.5 12.5t8 13l8 10l58 -29q-66 -141 -179 -141q-47 0 -120.5 53.5t-110.5 53.5q-12 0 -24.5 -5.5t-21.5 -10.5t-20.5 -17t-16.5 -18.5t-17.5 -22.5t-14.5 -21zM168 336q0 -119 49 -187.5t125 -68.5 q123 0 186.5 142.5t63.5 340.5q0 186 -51 328q-180 -57 -276.5 -215t-96.5 -340z" />
<glyph unicode="&#xf6;" horiz-adv-x="770" d="M68 348q0 170 80.5 311.5t197.5 217.5q-57 -8 -113.5 -3t-89.5 17l27 82q88 -16 154.5 -18.5t102.5 5t90 17.5t101 14q76 -195 76 -428q0 -102 -18.5 -199.5t-57 -186.5t-112.5 -143t-170 -54q-111 0 -189.5 89t-78.5 279zM168 336q0 -119 49 -187.5t125 -68.5 q123 0 186.5 142.5t63.5 340.5q0 186 -51 328q-180 -57 -276.5 -215t-96.5 -340zM201 1165v240h104v-240h-104zM530 1165v240h105v-240h-105z" />
<glyph unicode="&#xf7;" horiz-adv-x="806" d="M63 547v88h680v-88h-680zM356 172v227h101v-227h-101zM356 788v228h101v-228h-101z" />
<glyph unicode="&#xf8;" horiz-adv-x="757" d="M70 360q4 164 73.5 297.5t175.5 214.5q-115 -16 -178 19l23 82q129 -35 258 -12q4 0 50 10t77 14l65 162l91 -12l-78 -191q57 -178 57 -381q0 -137 -35 -265t-120 -223t-201 -95q-39 0 -82 16l-70 -176l-96 8l88 217q-104 100 -98 315zM174 352q-4 -121 43 -188l291 721 q-152 -43 -240 -203t-94 -330zM283 84q27 -10 51 -10q109 2 177.5 150.5t68.5 338.5q0 121 -21 215z" />
<glyph unicode="&#xf9;" horiz-adv-x="976" d="M70 877v94h225v-860q162 25 263 162t101 380v224h-86v94h279v-94h-88v-783h125v-94h-230v158q0 68 15 182q-47 -176 -177 -259t-307 -85v881h-120zM250 1327l74 86l278 -190l-59 -70z" />
<glyph unicode="&#xfa;" horiz-adv-x="976" d="M70 877v94h225v-860q162 25 263 162t101 380v224h-86v94h279v-94h-88v-783h125v-94h-230v158q0 68 15 182q-47 -176 -177 -259t-307 -85v881h-120zM348 1221l279 190l73 -86l-292 -170z" />
<glyph unicode="&#xfb;" horiz-adv-x="976" d="M70 877v94h225v-860q162 25 263 162t101 380v224h-86v94h279v-94h-88v-783h125v-94h-230v158q0 68 15 182q-47 -176 -177 -259t-307 -85v881h-120zM225 1231l252 227l252 -227l-57 -49l-195 153l-192 -153z" />
<glyph unicode="&#xfc;" horiz-adv-x="976" d="M70 877v94h225v-860q162 25 263 162t101 380v224h-86v94h279v-94h-88v-783h125v-94h-230v158q0 68 15 182q-47 -176 -177 -259t-307 -85v881h-120zM258 1165v240h104v-240h-104zM588 1165v240h104v-240h-104z" />
<glyph unicode="&#xfd;" horiz-adv-x="942" d="M80 877v94h227v-869q356 45 357 525v250h-89v94h291v-94h-98v-754q0 -145 -50 -252t-136 -162t-179.5 -80.5t-199.5 -27.5v209h104v-97q362 39 363 410q0 113 4 205q-72 -332 -471 -332v881h-123zM309 1233l279 190l74 -86l-293 -170z" />
<glyph unicode="&#xfe;" horiz-adv-x="583" d="M0 1241q23 51 69 97t103 46q55 0 128 -52t101 -52q10 0 20.5 2t20 6t16.5 8t15 13l13 13q5 5 13.5 14.5t10.5 12.5t10 13l6 10l58 -29q-66 -141 -178 -141q-49 0 -123 53.5t-109 53.5q-12 0 -24.5 -5.5t-21.5 -10.5t-20.5 -17t-16.5 -18.5t-17.5 -22.5t-14.5 -21z" />
<glyph unicode="&#xff;" horiz-adv-x="942" d="M80 877v94h227v-869q356 45 357 525v250h-89v94h291v-94h-98v-754q0 -145 -50 -252t-136 -162t-179.5 -80.5t-199.5 -27.5v209h104v-97q362 39 363 410q0 113 4 205q-72 -332 -471 -332v881h-123zM262 1165v240h105v-240h-105zM592 1165v240h104v-240h-104z" />
<glyph unicode="&#x152;" horiz-adv-x="1755" d="M76 719q0 352 144.5 567t367.5 215q66 0 139 -24h918v-258h-111v155h-672q82 -70 135.5 -208t67.5 -310h475v-102h-471q16 -442 -215 -650l680 -2v152h111v-254h-949q-66 -18 -133 -18q-219 0 -353 201.5t-134 535.5zM186 719q0 -311 111 -473t266 -162q166 0 282 156.5 t116 478.5q0 330 -106.5 505t-266.5 175q-162 0 -282 -177t-120 -503z" />
<glyph unicode="&#x153;" horiz-adv-x="1282" d="M68 348q0 170 80.5 308.5t197.5 213.5q-55 -10 -113.5 -4t-89.5 21q4 14 13.5 40.5t13.5 41.5q150 -20 191.5 -20.5t123.5 16t133 20.5q53 -139 60 -262q133 227 496 260q53 -618 -484 -639q0 -156 17 -252q156 4 242.5 44t154.5 140q49 -27 88 -51q-94 -135 -217 -181 t-365 -46q-14 125 -12 186q-78 -199 -262 -198q-111 0 -189.5 87t-78.5 275zM166 336q0 -119 49 -185.5t127 -66.5q123 0 186.5 140.5t63.5 338.5q0 180 -51 322q-182 -57 -278.5 -213t-96.5 -336zM694 432q188 10 285.5 112.5t91.5 323.5q-381 -74 -377 -436z" />
<glyph unicode="&#x178;" horiz-adv-x="1126" d="M20 1374v103h396v-103h-144q4 -201 84 -400.5t205 -318.5q129 119 208 313.5t81 405.5h-141v103h397v-103h-145q-2 -233 -98.5 -446t-248.5 -357v-469h158v-102h-422v102h156v469q-150 143 -246 356.5t-98 446.5h-142zM346 1642v240h105v-240h-105zM676 1642v240h104 v-240h-104z" />
<glyph unicode="&#x2c6;" horiz-adv-x="503" d="M0 1262l252 227l252 -227l-58 -50l-194 154l-193 -154z" />
<glyph unicode="&#x2dc;" horiz-adv-x="583" d="M0 1241q23 51 69 97t103 46q55 0 128 -52t101 -52q10 0 20.5 2t20 6t16.5 8t15 13l13 13q5 5 13.5 14.5t10.5 12.5t10 13l6 10l58 -29q-66 -141 -178 -141q-49 0 -123 53.5t-109 53.5q-12 0 -24.5 -5.5t-21.5 -10.5t-20.5 -17t-16.5 -18.5t-17.5 -22.5t-14.5 -21z" />
<glyph unicode="&#x2000;" horiz-adv-x="958" />
<glyph unicode="&#x2001;" horiz-adv-x="1916" />
<glyph unicode="&#x2002;" horiz-adv-x="958" />
<glyph unicode="&#x2003;" horiz-adv-x="1916" />
<glyph unicode="&#x2004;" horiz-adv-x="638" />
<glyph unicode="&#x2005;" horiz-adv-x="479" />
<glyph unicode="&#x2006;" horiz-adv-x="319" />
<glyph unicode="&#x2007;" horiz-adv-x="319" />
<glyph unicode="&#x2008;" horiz-adv-x="239" />
<glyph unicode="&#x2009;" horiz-adv-x="382" />
<glyph unicode="&#x200a;" horiz-adv-x="106" />
<glyph unicode="&#x2010;" horiz-adv-x="784" d="M80 512v100h625v-100h-625z" />
<glyph unicode="&#x2011;" horiz-adv-x="784" d="M80 512v100h625v-100h-625z" />
<glyph unicode="&#x2012;" horiz-adv-x="784" d="M80 512v100h625v-100h-625z" />
<glyph unicode="&#x2013;" horiz-adv-x="983" d="M0 520v92h983v-92h-983z" />
<glyph unicode="&#x2014;" horiz-adv-x="2048" d="M195 522v92h1658v-92h-1658z" />
<glyph unicode="&#x2018;" horiz-adv-x="348" d="M106 989q-18 238 4.5 376t104.5 255l64 -57q-53 -127 -65.5 -232.5t-2.5 -341.5h-105z" />
<glyph unicode="&#x2019;" horiz-adv-x="348" d="M70 1044q53 127 65 232.5t2 341.5h105q18 -238 -4.5 -376t-104.5 -255z" />
<glyph unicode="&#x201a;" horiz-adv-x="372" d="M109 -303q53 127 65 232.5t2 340.5h105q18 -238 -4.5 -376t-104.5 -254z" />
<glyph unicode="&#x201c;" horiz-adv-x="638" d="M111 987q-20 236 4 383.5t104 247.5l64 -57q-53 -115 -66.5 -232t-1.5 -342h-104zM375 987q-20 233 4 381t102 250l66 -57q-53 -115 -66.5 -231t-1.5 -343h-104z" />
<glyph unicode="&#x201d;" horiz-adv-x="638" d="M92 1044q53 115 66.5 231t1.5 343h104q20 -233 -4 -380.5t-102 -250.5zM356 1044q53 115 66.5 232t1.5 342h104q20 -236 -4 -383.5t-104 -247.5z" />
<glyph unicode="&#x201e;" horiz-adv-x="638" d="M84 -311q53 115 66.5 230.5t1.5 342.5h104q20 -233 -4.5 -380.5t-101.5 -250.5zM348 -311q53 115 66.5 231.5t1.5 341.5h104q20 -236 -4 -383t-104 -248z" />
<glyph unicode="&#x2022;" horiz-adv-x="522" d="M80 686q0 76 53 128t129 52q74 0 127 -52t53 -128q0 -74 -53 -128t-127 -54q-76 0 -129 54t-53 128z" />
<glyph unicode="&#x2026;" horiz-adv-x="1028" d="M109 0v266h110v-266h-110zM457 0v266h110v-266h-110zM809 0v266h111v-266h-111z" />
<glyph unicode="&#x202f;" horiz-adv-x="382" />
<glyph unicode="&#x2039;" horiz-adv-x="673" d="M29 553l512 502l63 -66l-454 -436l456 -434l-65 -66z" />
<glyph unicode="&#x203a;" horiz-adv-x="673" d="M68 119l456 434l-454 436l63 66l512 -502l-512 -500z" />
<glyph unicode="&#x205f;" horiz-adv-x="479" />
<glyph unicode="&#x20ac;" horiz-adv-x="1171" d="M68 819l26 86h156q53 248 186 377t299 129q82 0 162 -43t127 -100l-41 -94q-10 16 -29.5 38.5t-84 61.5t-134.5 39q-135 0 -229 -113t-139 -295h475l-29 -86h-467q-12 -102 -16 -153h512l-27 -88h-483q6 -242 100 -373t246 -131q209 0 340 239l86 -41 q-162 -297 -426 -297q-201 0 -324 149.5t-131 453.5h-153l24 88h129q0 72 10 153h-165z" />
<glyph unicode="&#x2122;" horiz-adv-x="1636" d="M29 1278l2 162h639v-162h-82v88h-195v-659h94v-76h-274v76h94v659h-196v-88h-82zM627 631v76h90l110 659h-84v74h215l138 -660l147 660h215v-74h-86l113 -659h88v-76h-244v76h78l-109 655l-165 -739h-72l-162 739l-104 -655h75v-76h-243z" />
<glyph unicode="&#xe000;" horiz-adv-x="970" d="M0 970h970v-970h-970v970z" />
<glyph unicode="&#xfb01;" horiz-adv-x="960" d="M86 874v97h86v106q0 481 578 346l-21 -96q-244 49 -348.5 -13.5t-104.5 -244.5v-98h517v-877h88v-94h-281v94h90v780h-414v-780h86v-94h-270v94h80v780h-86z" />
<glyph unicode="&#xfb02;" horiz-adv-x="915" d="M86 874v97h86v106q-2 258 142.5 355.5t428.5 29.5v-1194q0 -176 138 -188l-7 -94q-109 4 -172 77.5t-63 204.5v1114q-199 25 -281 -54t-82 -261v-96h134v-97h-134v-780h86v-94h-270v94h80v780h-86z" />
<glyph unicode="&#xfb03;" horiz-adv-x="1476" d="M1085 877v94h225v-877h86v-94h-278v94h88v783h-121zM1206 1174v264h104v-264h-104zM590 877v94h86v258q0 141 75 214q73 71 195 71q3 0 7 -1l6 -94q-178 -12 -178 -190v-258h92v-94h-92v-783h86v-94h-271v94h80v783h-86zM90 877v94h86v258q0 141 75 214q73 71 195 71 q3 0 7 -1l6 -94q-178 -12 -178 -190v-258h92v-94h-92v-783h86v-94h-271v94h80v783h-86z" />
<glyph unicode="&#xfb04;" horiz-adv-x="1421" d="M1054 1409v94h271v-94h-84v-1141q0 -176 141 -188l-16 -94q-106 4 -167 77.5t-61 204.5v1141h-84zM590 877v94h86v258q0 141 75 214q73 71 195 71q3 0 7 -1l6 -94q-178 -12 -178 -190v-258h92v-94h-92v-783h86v-94h-271v94h80v783h-86zM90 877v94h86v258q0 141 75 214 q73 71 195 71q3 0 7 -1l6 -94q-178 -12 -178 -190v-258h92v-94h-92v-783h86v-94h-271v94h80v783h-86z" />
</font>
</defs>
</svg>
