<?xml version="1.0" standalone="no"?>
<!DOCTYPE svg PUBLIC "-//W3C//DTD SVG 1.1//EN" "http://www.w3.org/Graphics/SVG/1.1/DTD/svg11.dtd" >
<svg xmlns="http://www.w3.org/2000/svg">
<metadata>
This is a custom SVG webfont generated by Font Squirrel.
Copyright   : Copyright c 2006 by Henning Skibbe All rights reserved
Designer    : Henning Skibbe
Foundry     : Henning Skibbe
</metadata>
<defs>
<font id="NautikBlack" horiz-adv-x="862" >
<font-face units-per-em="2048" ascent="1622" descent="-426" />
<missing-glyph horiz-adv-x="409" />
<glyph unicode=" "  horiz-adv-x="409" />
<glyph unicode="&#x09;" horiz-adv-x="409" />
<glyph unicode="&#xa0;" horiz-adv-x="409" />
<glyph unicode="!" horiz-adv-x="458" d="M205 0v262h151v-262h-151zM205 543v1069h149v-1069h-149z" />
<glyph unicode="&#x22;" horiz-adv-x="796" d="M166 952q-25 268 6 419t137 247l84 -96q-63 -119 -75.5 -215.5t-0.5 -354.5h-151zM498 952q-25 268 6 419t137 247l84 -96q-63 -119 -75.5 -215.5t-0.5 -354.5h-151z" />
<glyph unicode="#" horiz-adv-x="1169" d="M51 332l25 147h180l51 328h-188l24 147h187l51 344h158l-54 -344h226l51 344h158l-52 -344h240l-18 -147h-244l-49 -328h245l-18 -147h-252l-51 -332h-158l51 332h-223l-53 -332h-156l51 332h-182zM416 479h223l49 328h-223z" />
<glyph unicode="$" horiz-adv-x="1062" d="M102 -39v504h158v-139q0 -68 59.5 -121t141.5 -74v606q-66 23 -107 39.5t-92 46t-80.5 64.5t-50 89t-20.5 122q0 162 102 259t248 111v166h139v-174q68 -16 123 -57v88h162v-485h-162v112q0 66 -35 114t-88 71v-461q84 -29 139.5 -56.5t118 -77t93 -124t30.5 -174.5 q0 -178 -104.5 -293t-276.5 -137v-207h-139v209q-109 14 -201 84v-105h-158zM270 1098q0 -78 49.5 -124t141.5 -81v428q-82 -12 -136.5 -70.5t-54.5 -152.5zM600 129q102 16 159.5 89t57.5 192q0 109 -56 171t-161 105v-557z" />
<glyph unicode="%" horiz-adv-x="1406" d="M72 1063q0 164 67.5 280.5t192.5 116.5q84 0 137 -57t73.5 -140t20.5 -190q0 -145 -64.5 -252.5t-191.5 -107.5q-68 0 -116 31.5t-72.5 85t-35.5 110.5t-11 123zM188 1063q0 -102 31 -170t94 -68q61 0 97 69t36 173q0 283 -120 283q-59 0 -98.5 -84t-39.5 -203zM406 0 q76 240 227 720t227 720h146q-49 -154 -461 -1440h-139zM846 336q0 158 67.5 274.5t192.5 116.5q229 0 229 -385q0 -92 -22.5 -169t-83 -133t-148.5 -56q-68 0 -115.5 31.5t-72.5 85t-36 111.5t-11 124zM963 336q0 -102 30.5 -172t93.5 -70q61 0 96.5 69.5t35.5 172.5 q0 281 -119 280q-59 0 -98 -81.5t-39 -198.5z" />
<glyph unicode="&#x26;" horiz-adv-x="1247" d="M103.5 437q5.5 173 48.5 272q47 111 198 215q-115 172 -114 329q0 113 87 203t226 90q141 0 216 -87t75 -206l-133 -69q0 215 -162 215q-61 0 -107.5 -40t-46.5 -95q0 -39 9.5 -78t21.5 -72t49 -93t63.5 -103.5t94 -145.5t116.5 -180q2 4 11.5 25.5t14.5 37t14.5 49 t14.5 66.5t9 83t4 108h285v-148h-156q-10 -174 -106 -348q227 -328 350 -328v-147q-76 0 -143.5 30.5t-129 94t-90 99.5t-80.5 108q-86 -115 -174 -185v2q-186 -150 -460 -149q-11 274 -5.5 447zM253 426q-5 -125 1 -287q139 33 227 105q92 72 174 200q-152 233 -225 353 q-31 -10 -77 -56.5t-68 -107.5q-27 -82 -32 -207z" />
<glyph unicode="'" horiz-adv-x="495" d="M166 952q-25 268 6 419t137 247l84 -96q-63 -119 -75.5 -215.5t-0.5 -354.5h-151z" />
<glyph unicode="(" horiz-adv-x="350" d="M72 633q0 457 125 956l143 33q-135 -502 -131 -997q2 -465 129 -1002l-141 27q-125 512 -125 983z" />
<glyph unicode=")" horiz-adv-x="350" d="M10 -377q135 502 131 998q-2 465 -129 1001l142 -27q125 -512 125 -983q0 -457 -125 -956z" />
<glyph unicode="*" horiz-adv-x="788" d="M72 1288l32 107l238 -78l-8 248h119l-9 -248l238 78l35 -107l-240 -74l150 -202l-90 -64l-144 201l-145 -201l-90 68l147 196z" />
<glyph unicode="+" horiz-adv-x="856" d="M72 537v137h280v327h152v-327h280v-137h-280v-328h-152v328h-280z" />
<glyph unicode="," horiz-adv-x="423" d="M72 -307q63 119 75.5 215t-0.5 354h152q25 -268 -6 -418.5t-137 -246.5z" />
<glyph unicode="-" horiz-adv-x="784" d="M72 465v147h641v-147h-641z" />
<glyph unicode="." horiz-adv-x="385" d="M154 0v262h159v-262h-159z" />
<glyph unicode="/" horiz-adv-x="813" d="M10 -268l631 1843h162l-631 -1843h-162z" />
<glyph unicode="0" horiz-adv-x="868" d="M61 528q0 240 112 424.5t286 184.5q129 0 212 -89.5t113.5 -215t30.5 -287.5q0 -141 -36 -262t-126 -207t-221 -86q-104 0 -181 48t-116 131t-56.5 171t-17.5 188zM211 528q0 -170 57.5 -282.5t163.5 -112.5q102 0 168 123t66 279q0 209 -53.5 333.5t-157.5 124.5 q-102 0 -173 -141.5t-71 -323.5z" />
<glyph unicode="1" horiz-adv-x="651" d="M31 979l393 154v-990h166v-143h-498v143h182v797l-198 -84z" />
<glyph unicode="2" horiz-adv-x="778" d="M51 0q43 225 104.5 343t221.5 278q154 154 151 368q-84 -2 -149.5 -17.5t-120.5 -68.5t-55 -139l-115 37q0 74 25.5 131t74 92t102.5 58.5t129 33.5t132 13.5t131 3.5q6 -145 -19.5 -261t-69.5 -188t-99.5 -140.5t-105.5 -119.5t-94 -125t-61 -156h324v164h150v-307h-656 z" />
<glyph unicode="3" horiz-adv-x="825" d="M41 -156q233 72 372.5 237t139.5 304q0 82 -53.5 117t-125 25.5t-136.5 -50.5l-56 121q139 53 238.5 154.5t138.5 218.5h-338v-113h-149v256h682q-12 -135 -88 -276.5t-199 -200.5q113 6 174 -66.5t61 -173.5q0 -190 -167.5 -397t-444.5 -291z" />
<glyph unicode="4" horiz-adv-x="843" d="M41 96q43 377 90 529q100 326 373 454q68 31 147 54v-893h131v-144h-131v-217h74v-143h-297v143h74v217h-461zM213 240h289v667q-125 -70 -190.5 -219t-98.5 -448z" />
<glyph unicode="5" horiz-adv-x="772" d="M41 -158q236 117 366 284t130 314q0 76 -36 114t-98 38q-27 0 -50 -3t-47.5 -10.5t-41 -12.5t-43 -19.5t-38 -20.5t-41 -23.5t-40.5 -23.5v635h572v-258h-150v115h-272v-287q82 49 184 49q123 0 183.5 -81t60.5 -206q0 -188 -138.5 -381.5t-437.5 -349.5z" />
<glyph unicode="6" horiz-adv-x="827" d="M72 422q0 233 63.5 450.5t183.5 339.5q160 160 353 174l20 -143q-166 -25 -266 -129q-160 -158 -211 -465q59 111 189.5 170.5t271.5 65.5q72 -252 67 -453q-2 -117 -29.5 -210t-107.5 -160.5t-205 -67.5q-90 0 -156.5 37t-103.5 100.5t-53 136t-16 154.5zM221 358 q0 -90 46 -155.5t134 -65.5q80 0 136.5 69.5t56.5 205t-33 309.5q-131 -14 -235.5 -113.5t-104.5 -249.5z" />
<glyph unicode="7" horiz-adv-x="946" d="M41 856v258h809l45 -166q-213 -150 -279 -215q-127 -129 -167 -352q-39 -209 -39 -672h-150q0 309 15.5 495.5t63.5 338t130 246t221 182.5h-500v-115h-149z" />
<glyph unicode="8" horiz-adv-x="884" d="M72 342q0 78 42 167t84 143.5t119 144.5q-59 53 -105 130t-46 152q0 121 90 211t227 90q125 0 207 -83t82 -216q0 -31 -5 -59.5t-17.5 -58t-21.5 -50t-30.5 -50t-32 -42t-36 -44.5t-31.5 -40q47 -49 71.5 -77.5t61.5 -83t54.5 -112.5t17.5 -124q0 -150 -95.5 -257.5 t-275.5 -107.5q-174 0 -267 104.5t-93 262.5zM221 358q0 -115 64.5 -179t150.5 -64q88 0 152.5 61.5t64.5 159.5q0 186 -194 346l-41 31q-86 -84 -141.5 -179.5t-55.5 -175.5zM315 1079q0 -143 187 -264q121 137 121 246q0 86 -40 132t-105.5 46t-114 -46t-48.5 -114z" />
<glyph unicode="9" horiz-adv-x="845" d="M84 705q2 184 81 308t259 124q90 0 157.5 -38t103.5 -101.5t52.5 -136.5t16.5 -154q0 -236 -62.5 -453t-185.5 -338q-164 -164 -350 -174l-23 137q147 12 268 133q158 160 209 467q-59 -113 -184 -172t-262 -63q-84 225 -80 461zM231 717q0 -203 39 -318 q127 20 231.5 122t104.5 247q0 92 -46 158.5t-134 66.5q-80 0 -137.5 -70.5t-57.5 -205.5z" />
<glyph unicode=":" horiz-adv-x="376" d="M154 0v260h151v-260h-151zM154 737v260h151v-260h-151z" />
<glyph unicode=";" horiz-adv-x="382" d="M72 -309q63 119 75.5 215t-0.5 354h152q25 -268 -6 -418.5t-137 -247.5zM141 735v262h152v-262h-152z" />
<glyph unicode="&#x3c;" horiz-adv-x="878" d="M31 553l657 479l96 -143l-499 -332l501 -346l-98 -137z" />
<glyph unicode="=" d="M72 348v135h719v-135h-719zM72 680v135h719v-135h-719z" />
<glyph unicode="&#x3e;" horiz-adv-x="878" d="M92 211l502 346l-500 332l96 143l658 -479l-658 -479z" />
<glyph unicode="?" horiz-adv-x="790" d="M154 1239v291q84 -14 175 -44t182 -76t149.5 -115.5t58.5 -147.5q0 -76 -34 -134.5t-83 -93t-98 -65.5t-83 -71t-34 -91q0 -72 59 -102l-63 -125q-143 61 -143 217q0 78 34.5 139.5t85 99t99.5 70.5t84 69t35 77q0 61 -96.5 126.5t-178.5 73.5v-98h-149zM299 0v262h152 v-262h-152z" />
<glyph unicode="@" horiz-adv-x="1433" d="M72 279q0 147 32.5 288.5t100 268.5t163 222t229.5 151.5t290 56.5q240 0 357.5 -143.5t117.5 -362.5q0 -168 -52.5 -316.5t-183.5 -279.5t-327 -193l41 297q-59 -127 -176 -197.5t-275 -70.5q-6 293 18.5 452.5t110.5 270.5q129 160 514 270l-78 -805 q117 55 187.5 232.5t70.5 357.5q0 158 -78.5 256.5t-246.5 98.5q-160 0 -290 -74t-210 -196t-123 -271.5t-43 -310.5q0 -184 72 -311.5t229 -127.5q127 0 246 49l55 -127q-145 -57 -299 -57q-225 0 -338.5 161t-113.5 411zM532 152q109 33 170 102q129 147 164 541 q-166 -70 -231 -156q-59 -76 -79 -185t-24 -302z" />
<glyph unicode="A" horiz-adv-x="1331" d="M10 0v147h142l350 1170h-150v147h434l394 -1317h141v-147h-451v147h144l-117 388h-463l-117 -388h140v-147h-447zM475 678h377l-186 649z" />
<glyph unicode="B" horiz-adv-x="1167" d="M133 0v147h160v1145h-160v148h424q217 0 335 -100.5t118 -270.5q0 -94 -55.5 -181t-155.5 -110q125 -18 205.5 -123.5t80.5 -232.5q0 -195 -123.5 -308.5t-367.5 -113.5h-461zM453 147h141q178 0 255 71t77 204q0 119 -82 195.5t-244 76.5h-147v-547zM453 842h165 q117 0 174.5 60.5t57.5 166.5q0 223 -293 223h-104v-450z" />
<glyph unicode="C" horiz-adv-x="1040" d="M72 625q0 186 32.5 335.5t86 240.5t123 150.5t137 83t137.5 23.5q154 0 203 -108l-5 92l-2 49h156v-473h-160v37q0 256 -192 256q-156 0 -256.5 -204t-100.5 -472q0 -217 77 -364.5t224 -147.5q78 0 140.5 42t94.5 88t69 120l133 -66q-76 -152 -177.5 -242t-259.5 -90 q-209 0 -334.5 164t-125.5 486z" />
<glyph unicode="D" horiz-adv-x="1218" d="M133 0v147h158v1145h-158v148h414q311 0 455.5 -191.5t144.5 -531.5q0 -115 -11.5 -207t-46 -191.5t-93 -166t-161 -109.5t-241.5 -43h-461zM451 147h143q121 0 200.5 40t120.5 121t56.5 176.5t15.5 232.5q0 293 -105.5 434t-334.5 141h-96v-1145z" />
<glyph unicode="E" horiz-adv-x="1220" d="M133 1292v148h965v-303h-160v155h-483v-424h544v-147h-544v-574h483v148h160v-295h-963v147h160v1145h-162z" />
<glyph unicode="F" horiz-adv-x="1169" d="M133 0v147h160v1145h-160v148h954v-305h-159v157h-475v-422h544v-147h-544v-576h161v-147h-481z" />
<glyph unicode="G" horiz-adv-x="1091" d="M72 680q0 332 142 556t374 224q172 0 207 -131q-10 63 -11 162h156v-473h-160v49q0 102 -46 174t-148 72q-147 0 -251 -196.5t-104 -477.5q0 -219 70 -367.5t207 -148.5q51 0 98 19.5t96.5 65.5t79 143.5t29.5 234.5v45h-219v147h377v-805h-160l2 86l10 127 q-16 -96 -111.5 -153.5t-185.5 -57.5q-109 0 -190.5 39t-130.5 102.5t-79 158t-41 190.5t-11 215z" />
<glyph unicode="H" horiz-adv-x="1449" d="M133 0v147h160v1145h-160v148h449v-148h-129v-424h544v424h-127v148h447v-148h-160v-1145h160v-147h-447v147h127v574h-544v-574h129v-147h-449z" />
<glyph unicode="I" horiz-adv-x="745" d="M133 0v147h158v1145h-158v148h479v-148h-161v-1145h161v-147h-479z" />
<glyph unicode="J" horiz-adv-x="684" d="M0 -256q57 18 103.5 53t75 72t48 93t29.5 99t14 112t4 106.5t-1 106.5t-1 93v813h-159v148h479v-148h-160v-813q0 -59 1 -110q0 -203 -7 -269q-35 -313 -252 -438q-55 -33 -123 -55z" />
<glyph unicode="K" horiz-adv-x="1267" d="M133 0v147h158v1145h-158v148h436v-148h-116v-471h151l232 471h-88v148h382v-148h-120l-248 -506q41 -16 78 -53q51 -51 93 -135t64.5 -151.5t71.5 -237.5l18 -62h130v-147h-252q-113 401 -148 485q-39 96 -92 150q-39 39 -209 39h-63v-527h116v-147h-436z" />
<glyph unicode="L" horiz-adv-x="1097" d="M133 0v147h162v1145h-158v148h477v-148h-159v-1145h452v160h160v-307h-934z" />
<glyph unicode="M" horiz-adv-x="1728" d="M20 0v147h158l197 1145h-160v148h418l235 -1114l226 1114h424v-148h-168l200 -1145h158v-147h-442v147h123l-195 1153l-272 -1308h-127l-289 1308l-174 -1153h131v-147h-443z" />
<glyph unicode="N" horiz-adv-x="1484" d="M133 0v147h160v1145h-160v148h412l528 -1133l-8 144v841h-160v148h467v-148h-155v-1296h-166l-613 1309l6 -111v-1047h160v-147h-471z" />
<glyph unicode="O" horiz-adv-x="1132" d="M72 715q0 344 143 562t366.5 218t351.5 -214t128 -566q0 -369 -134 -549t-364 -180q-223 0 -357 194.5t-134 534.5zM231 715q0 -166 32 -286t85 -181.5t106.5 -88t108.5 -26.5q63 0 116.5 23.5t107 82t84 180.5t30.5 296q0 322 -96 477.5t-223 155.5q-131 0 -241 -163 t-110 -470z" />
<glyph unicode="P" horiz-adv-x="1060" d="M133 0v147h162v1145h-162v148h414q225 0 361 -118q130 -113 131 -316q0 -9 -1 -19q-2 -98 -42 -174t-98 -120t-138 -73.5t-152.5 -41t-152.5 -13.5v-418h159v-147h-481zM455 711q102 0 189 21.5t160 89t75 173.5v11q0 286 -332 286h-92v-581z" />
<glyph unicode="Q" horiz-adv-x="1142" d="M72 686q0 344 143 562t366.5 218t351.5 -214t128 -566q0 -489 -242 -655q59 -113 238 -113v-147q-268 0 -383 200q-45 -14 -111 -14q-223 0 -357 194.5t-134 534.5zM231 686q0 -166 32 -285.5t85 -181t106.5 -88.5t108.5 -27q63 0 116.5 24t107 82t84 180t30.5 296 q0 322 -96 477.5t-223 155.5q-131 0 -241 -163t-110 -470z" />
<glyph unicode="R" horiz-adv-x="1228" d="M133 0v147h162v1145h-162v148h322q199 0 294 -18.5t173 -94.5q115 -115 114 -285q0 -113 -71.5 -209t-186.5 -120q61 -10 107 -56q63 -63 89.5 -183t35.5 -327h137v-147h-287q-8 330 -33 438q-25 104 -69 150q-41 41 -91.5 52t-129.5 11h-82v-504h135v-147h-457zM455 791 h147q274 0 275 245q0 117 -70 187q-47 47 -120 61q-51 10 -144 10q-40 0 -88 -2v-501z" />
<glyph unicode="S" horiz-adv-x="1062" d="M102 -25v490h158v-57q0 -150 76 -217.5t194 -67.5q133 0 210 74.5t77 212.5q0 84 -39 143t-101.5 91t-138 57.5t-150.5 53t-137.5 64.5t-101 105.5t-38.5 165.5q0 174 118.5 274t274.5 100q150 0 225 -104l-6 67v37h160v-467h-160v54q0 145 -62.5 205.5t-156.5 60.5 q-96 0 -165 -59.5t-69 -167.5q0 -66 39 -111t101.5 -71.5t139.5 -50t152.5 -55.5t138 -77t101.5 -126t39 -189q0 -197 -125 -316t-326 -119q-186 0 -278 127l6 -63l2 -64h-158z" />
<glyph unicode="T" horiz-adv-x="1134" d="M10 1135v305h1114v-305h-159v157h-318v-1145h160v-147h-479v147h159v1145h-317v-157h-160z" />
<glyph unicode="U" horiz-adv-x="1353" d="M82 1292v148h315v-1266q80 16 165 77.5t163 165t128 268.5t50 359v248h-131v148h449v-148h-158v-1145h158v-147h-318v455q-70 -209 -252 -332t-413 -123v1292h-156z" />
<glyph unicode="V" horiz-adv-x="1243" d="M102 1292v148h453v-148h-133v-1132q100 25 181 82t133 126.5t89 168t56.5 186.5t29 199.5t11.5 190.5q1 39 1 84t-1 95h-134v148h435v-148h-142q11 -75 11 -157q0 -55 -5 -114q-12 -146 -37.5 -292.5t-93 -283t-155.5 -241t-228.5 -167t-310.5 -62.5v1317h-160z" />
<glyph unicode="W" horiz-adv-x="1708" d="M82 1292v148h463v-148h-139v-1169q82 31 145 86t105 114.5t72 151.5t45 164t24.5 186.5t11.5 185t4 193.5t4 180h160v-1263q78 23 140.5 79t103.5 124.5t71.5 163t46 177.5t26.5 187t14 174t5 155t5 111h-142v148h451v-148h-150q1 -36 1 -72q0 -89 -4 -173 q-5 -119 -23.5 -258.5t-50 -255t-88 -227t-132 -186.5t-187.5 -119q-102 -40 -224 -40h-23v430q-41 -190 -206 -316q-155 -118 -341 -119q-12 0 -24 1v1335h-164z" />
<glyph unicode="X" horiz-adv-x="1245" d="M72 0v147h151q16 225 90 376t191 278q-135 119 -196.5 225.5t-69.5 265.5h-158v148h442v-148h-127q8 -129 58.5 -222t152.5 -183q207 184 240 405h-127v148h442v-148h-155q-18 -154 -90 -263t-205 -224q121 -113 193.5 -262.5t80.5 -395.5h189v-147h-349v21 q0 294 -56 443q-58 155 -163 257q-195 -221 -223 -574h123v-147h-434z" />
<glyph unicode="Y" horiz-adv-x="1118" d="M20 1292v148h426v-148h-133q0 -174 70 -345t174 -263q111 92 177.5 255t66.5 353h-135v148h432v-148h-137q0 -221 -91.5 -408.5t-234.5 -318.5v-418h160v-147h-478v147h158v418q-141 131 -231 318.5t-90 408.5h-134z" />
<glyph unicode="Z" horiz-adv-x="1056" d="M41 0l704 1292h-491v-159h-158v307h920l-705 -1293h514v158h160v-305h-944z" />
<glyph unicode="[" horiz-adv-x="413" d="M72 -379v1944h331v-148h-172v-1648h172v-148h-331z" />
<glyph unicode="\" horiz-adv-x="813" d="M10 1575h162l631 -1843h-162z" />
<glyph unicode="]" horiz-adv-x="413" d="M10 -231h172v1648h-172v148h332v-1944h-332v148z" />
<glyph unicode="^" horiz-adv-x="819" d="M41 844l289 596h162l286 -596l-166 -15l-202 471l-203 -471z" />
<glyph unicode="_" horiz-adv-x="921" d="M0 0h922v-147h-922v147z" />
<glyph unicode="`" horiz-adv-x="366" d="M0 1378l113 119l254 -225l-93 -96z" />
<glyph unicode="a" d="M76 512q31 199 165 312.5t441 199.5v-887h102v-137h-254v115l19 184q-61 -127 -188.5 -213t-282.5 -86q-17 162 -17 293q0 123 15 219zM217 176q127 39 220 162t93 358v135q-141 -57 -209.5 -125.5t-94.5 -190.5q-16 -74 -15 -184q0 -70 6 -155z" />
<glyph unicode="b" horiz-adv-x="819" d="M61 1386v138h304v-138h-78v-489l-15 -225q33 152 167 245t298 93q11 -135 11 -254q0 -79 -5 -150q-12 -178 -66 -306t-187.5 -210t-354.5 -117v1413h-74zM272 141q115 33 184.5 88.5t102.5 149.5t41 194q5 67 6 164q0 48 -2 105q-145 -33 -238.5 -189.5t-93.5 -400.5 v-111z" />
<glyph unicode="c" horiz-adv-x="737" d="M65 345q-1 31 -2 58q0 55 5 95q6 59 22 129.5t46 117t74 94.5t106.5 78.5t146.5 56t188 40.5l2 -328h-151v152q-207 -47 -260 -200q-34 -97 -34 -271q0 -101 11 -228q129 10 197.5 41t120.5 121l122 -72q-45 -80 -99 -127t-170 -77.5t-298 -30.5q-12 113 -18 185.5 t-9 165.5z" />
<glyph unicode="d" horiz-adv-x="839" d="M68 485q12 193 113.5 315t336.5 204v382h-76v138h303v-138h-75v-1249h92v-137h-244v100q0 43 5 104.5t9 102.5l7 39q-31 -145 -163 -245.5t-302 -100.5q-11 176 -11 315q0 93 5 170zM205 152q129 31 221 184t92 401v123q-213 -63 -277 -225q-45 -112 -45 -301 q0 -83 9 -182z" />
<glyph unicode="e" horiz-adv-x="790" d="M66 473q27 315 251 442q141 80 377 99q1 -28 1 -55q0 -291 -101 -442q-111 -165 -379 -177q0 -117 10 -203q135 4 215 41t140 127l129 -72q-98 -141 -230.5 -191t-392.5 -50q-23 263 -23 402q0 46 3 79zM219 467q150 12 227.5 99t92.5 280q-164 -33 -244 -134 q-76 -96 -76 -231v-14z" />
<glyph unicode="f" horiz-adv-x="493" d="M82 0v137h76v723h-76v137h76v240q0 152 88 228q84 73 224 73h15l9 -137q-184 -8 -185 -164v-240h82v-137h-82v-723h82v-137h-309z" />
<glyph unicode="g" horiz-adv-x="782" d="M72 -158h153v-86q117 10 212 91t95 221l13 249q-29 -158 -159 -241q-118 -77 -275 -77q-15 0 -31 1q-16 163 -16 297q0 110 11 202q24 202 164 328.5t441 196.5v-956q0 -227 -175 -352q-162 -114 -394 -114q-19 0 -39 1v239zM211 158q135 35 229.5 158.5t94.5 363.5v149 q-213 -72 -278 -221q-50 -116 -50 -324q0 -59 4 -126z" />
<glyph unicode="h" horiz-adv-x="888" d="M90 0v137h76v1249h-76v138h305v-138h-78l-2 -389q1 -20 1 -39q0 -98 -17 -190q41 111 160 170t272 70v-871h80v-137h-285v137h54v709q-262 -74 -263 -418v-291h56v-137h-283z" />
<glyph unicode="i" horiz-adv-x="495" d="M82 860v137h260v-860h76v-137h-305v137h77v723h-108zM190 1182v260h152v-260h-152z" />
<glyph unicode="j" horiz-adv-x="477" d="M-31 -250h6q61 0 124 77q67 81 67 232v801h-80v137h309v-137h-78v-801q0 -188 -98 -320t-235 -132zM166 1182v260h151v-260h-151z" />
<glyph unicode="k" horiz-adv-x="843" d="M72 0v137h92v1247h-78v138h309v-138h-80v-763q141 72 195 239h-61v137h307v-137h-90q-39 -141 -187 -272q223 -66 252 -451h103v-137h-254q0 219 -42 348t-153 166l-70 -29v-348h64v-137h-307z" />
<glyph unicode="l" horiz-adv-x="438" d="M45 1384v138h307v-138h-78v-1108q0 -63 21.5 -101t43 -47t54.5 -15l-22 -138q-119 6 -183.5 86t-64.5 215v1108h-78z" />
<glyph unicode="m" horiz-adv-x="1312" d="M82 860v137h258v-30l-14 -189q41 113 153 169q102 51 238 51q15 0 31 -1v-30l-19 -185q51 111 162 167q97 49 229 49q19 0 39 -1v-860h76v-137h-295v137h68v723q-102 -25 -181 -124t-79 -308v-428h-150v862q-117 -27 -187.5 -124t-70.5 -316v-285h70v-137h-297v137h75 v723h-106z" />
<glyph unicode="n" horiz-adv-x="907" d="M82 860v137h258v-71q0 -63 -23 -170q57 123 169 188q94 55 217 55q23 0 47 -2v-860h79v-137h-301v137h70v713q-106 -31 -182 -142.5t-76 -291.5v-279h70v-137h-301v137h79v723h-106z" />
<glyph unicode="o" horiz-adv-x="772" d="M57 358q0 293 242 498q-28 -4 -59 -4t-65 4q-69 8 -87 23l37 118q102 -20 180 -23q21 -1 40 -1q49 0 78 6q40 8 100.5 20.5t113.5 14.5q78 -221 78 -439q0 -61 -6.5 -124.5t-29 -152.5t-60 -155.5t-109.5 -113.5t-168 -47q-117 0 -201 90.5t-84 285.5zM203 342 q0 -94 41 -154.5t106.5 -60.5t110.5 46t65.5 121t28.5 142.5t8 138.5q0 160 -39 293q-166 -78 -243.5 -221t-77.5 -305z" />
<glyph unicode="p" horiz-adv-x="882" d="M72 860v137h258v-63l-13 -211q61 129 185 204q116 71 277 71q9 0 18 -1q13 -172 12 -310q0 -107 -7 -194q-17 -200 -125 -316t-347 -175v-248h76v-137h-308v137h80v1106h-106zM322 260l6 -119q174 55 247.5 135t86.5 216q6 62 5 141q0 92 -8 207q-61 -16 -119.5 -55.5 t-112.5 -106t-84 -174.5q-23 -85 -23 -187q0 -28 2 -57z" />
<glyph unicode="q" horiz-adv-x="811" d="M66 393q6 164 63 283t185 200.5t356 149.5v-1272h80v-137h-308v137h76v246l25 332q-37 -150 -169 -241t-300 -91q-10 161 -10 289q0 55 2 104zM203 158q109 55 173 117.5t103 178t39 287.5v93q-201 -84 -271 -232q-51 -107 -52 -293q1 -70 8 -151z" />
<glyph unicode="r" horiz-adv-x="759" d="M82 860v137h258v-77q0 -31 -5 -72t-9 -68.5t-4 -29.5q37 117 151 186q103 62 243 62q17 0 34 -1v-307h-152l2 152q-260 -84 -260 -426v-279h78v-137h-305v137h75v723h-106z" />
<glyph unicode="s" horiz-adv-x="702" d="M82 -35v283h151v-119q115 29 177.5 90.5t62.5 128.5q0 49 -40 79t-95 48.5t-111.5 40t-96.5 69.5t-40 122q0 291 496 307v-260h-152l2 114q-102 -6 -150 -46t-48 -99q0 -43 39.5 -71.5t95 -46t112 -41t96.5 -74t40 -125.5q0 -147 -144.5 -266.5t-394.5 -133.5z" />
<glyph unicode="t" horiz-adv-x="602" d="M78 860v137h84l10 164h137v-164h244v-137h-244v-708q100 61 158 174l131 -56q-80 -150 -185.5 -222.5t-254.5 -72.5v885h-80z" />
<glyph unicode="u" horiz-adv-x="978" d="M61 860v137h261v-831q123 45 216 180t93 371v143h-74v137h303v-137h-78v-723h111v-137h-262v109l18 215q-53 -156 -182 -240t-297 -84v860h-109z" />
<glyph unicode="v" horiz-adv-x="847" d="M78 860v137h293v-137h-62v-715q115 39 186.5 169t92.5 271q14 94 13 184q0 46 -3 91h-57v137h286v-137h-77q2 -35 1 -70q0 -117 -21 -230q-28 -146 -91.5 -279.5t-188 -215t-292.5 -81.5v876h-80z" />
<glyph unicode="w" horiz-adv-x="1185" d="M78 860v137h299v-137h-68v-704q55 25 96 64.5t66 104t39 120t20.5 152.5t7.5 154.5t1 174.5v35h157v-799q147 63 191 231q39 153 39 420v51h-72v133h301v-133h-80q1 -32 1 -62q0 -76 -4 -140q-5 -90 -22.5 -195t-54.5 -183.5t-92 -147t-144 -108.5t-206 -48v186v96 q-27 -119 -128 -200.5t-267 -81.5v880h-80z" />
<glyph unicode="x" horiz-adv-x="907" d="M51 0v137h105q0 135 45 223.5t141 184.5q-55 43 -85 71.5t-62.5 94t-38.5 149.5h-103v137h318v-137h-60q0 -162 129 -239q137 72 148 239h-62v137h324v-137h-105q-10 -72 -45.5 -134t-65.5 -92t-89 -81q55 -47 89 -88t65.5 -129t31.5 -199h125v-137h-276v68 q0 281 -136 415q-137 -141 -137 -346h74v-137h-330z" />
<glyph unicode="y" horiz-adv-x="954" d="M78 860v137h264v-843q297 96 297 503v203h-84v137h328v-137h-92v-747q0 -135 -48.5 -236.5t-133.5 -159t-189.5 -86t-229.5 -28.5v239h152v-75q305 43 305 346q0 111 6 198q-86 -311 -463 -311v860h-112z" />
<glyph unicode="z" horiz-adv-x="831" d="M41 0l487 860h-280v-137h-152v274h684l-485 -860h297v144h151v-281h-702z" />
<glyph unicode="{" horiz-adv-x="497" d="M51 451v114q29 0 57.5 7.5t56.5 36t28 73.5q0 35 -4.5 235.5t-4.5 342.5q0 119 77 159.5t220 30.5l6 -137q-96 -8 -123.5 -41t-27.5 -139v-461q0 -39 -14.5 -69t-44 -50.5t-44 -27.5t-40.5 -17q143 -66 143 -164v-465q0 -104 25.5 -132t125.5 -38l-6 -139 q-297 0 -297 184q0 70 5.5 296t3.5 286q0 63 -46.5 89t-95.5 26z" />
<glyph unicode="|" horiz-adv-x="458" d="M154 -246v1874h151v-1874h-151z" />
<glyph unicode="}" horiz-adv-x="497" d="M10 -293q100 10 126 38t26 132v465q0 100 143 164q-27 10 -41 17t-44 27.5t-44 50.5t-14 69v460q0 106 -28 139.5t-124 41.5l6 137q143 10 220 -31t77 -160q0 -139 -4 -339.5t-4 -237.5q0 -66 45 -91.5t96 -25.5v-114q-49 0 -95 -26t-46 -89q-2 -59 3 -285.5t5 -296.5 q0 -184 -297 -184z" />
<glyph unicode="~" horiz-adv-x="1130" d="M72 1313q129 213 286 213q59 0 119 -31t99.5 -67.5t87 -67.5t84.5 -31q127 0 198 150l113 -49q-41 -94 -120 -167t-191 -73q-94 0 -209 94q-8 6 -36 28.5t-39 30t-32.5 20.5t-38 18t-35.5 5q-100 0 -194 -147z" />
<glyph unicode="&#xa1;" horiz-adv-x="407" d="M154 457h149v-1069h-149v1069zM154 737v262h151v-262h-151z" />
<glyph unicode="&#xa2;" horiz-adv-x="876" d="M51 475q0 209 86 367.5t240 195.5v148h137v-146q102 -23 139 -102q-6 59 -6 78v39h152v-353h-152q0 92 -49 145.5t-149 53.5q-117 0 -182.5 -132t-65.5 -286q0 -72 20.5 -146.5t83 -140t154.5 -65.5q63 0 117.5 19.5t84 41t80.5 66.5l74 -113q-119 -135 -303 -151v-144 h-135v148q-147 27 -236.5 155.5t-89.5 321.5z" />
<glyph unicode="&#xa3;" horiz-adv-x="1107" d="M92 674v147h203q-6 352 118 487.5t390 123.5l-35 -148q-188 8 -250.5 -95.5t-62.5 -367.5h221v-147h-221v-527h452v160h160v-307h-934v147h162v527h-203z" />
<glyph unicode="&#xa4;" horiz-adv-x="1187" d="M51 782l37 123h184q29 127 84.5 221.5t124 144.5t136 73.5t139.5 23.5q68 0 146.5 -30.5t133.5 -90.5l-55 -133q-10 12 -30.5 31.5t-79 51.5t-115.5 32q-106 0 -188.5 -88t-127.5 -236h387l-36 -123h-379q-12 -90 -17 -133h434l-36 -125h-394q12 -178 89 -293.5 t212 -115.5q111 0 182.5 62.5t131.5 166.5l123 -59q-80 -143 -178.5 -226.5t-258.5 -83.5q-197 0 -322.5 138.5t-137.5 410.5h-187l37 125h150q0 47 8 133h-197z" />
<glyph unicode="&#xa5;" horiz-adv-x="1155" d="M41 1292v148h428v-148h-133q0 -158 68.5 -311.5t175.5 -245.5q111 92 174 237.5t63 319.5h-133v148h430v-148h-137q0 -303 -205 -547h236v-127h-353v-141h353v-117h-353v-213h158v-147h-473v147h158v213h-353v117h353v141h-353v127h236q-205 248 -205 547h-135z" />
<glyph unicode="&#xa6;" horiz-adv-x="438" d="M143 -246v625h152v-625h-152zM143 1004v624h152v-624h-152z" />
<glyph unicode="&#xa7;" horiz-adv-x="1038" d="M102 819q0 127 70 219q-33 63 -33 168q0 141 105.5 250t271.5 109q121 0 216 -59.5t126 -129.5l-98 -110q-78 147 -250 147q-88 0 -149.5 -63.5t-61.5 -159.5q0 -61 45 -116.5t168 -127.5q25 -14 80 -44t86 -48t78 -49t72.5 -58.5t54 -64.5t41 -80t12.5 -92 q0 -145 -68 -254q29 -63 29 -147q0 -106 -45 -191.5t-112.5 -130.5t-136 -68.5t-128.5 -23.5q-236 0 -350 137l84 125q125 -115 266 -115q29 0 68 12.5t85 39t77.5 81t31.5 125.5q0 92 -58 154.5t-167 120.5q-18 10 -68.5 35.5t-73 38t-66.5 39t-66.5 47t-53 53.5t-45 64.5 t-26 74.5t-11.5 92zM262 815q0 -80 64.5 -139.5t187.5 -128.5q182 -100 242 -152q14 53 14 103q0 94 -63.5 154.5t-190.5 123.5q-184 94 -237 137q-17 -32 -17 -98z" />
<glyph unicode="&#xa8;" horiz-adv-x="468" d="M0 1169v244h152v-244h-152zM317 1169v244h152v-244h-152z" />
<glyph unicode="&#xa9;" horiz-adv-x="1411" d="M72 831q0 281 180 471.5t453 190.5q268 0 451 -191.5t183 -470.5q0 -266 -185 -465.5t-449 -199.5q-268 0 -450.5 198.5t-182.5 466.5zM190 831q0 -221 146.5 -385.5t368 -164.5t370 164.5t148.5 385.5q0 227 -147.5 387t-371 160t-369 -159t-145.5 -388zM395 801 q0 166 85 297t225 131q98 0 143 -78q-6 37 -6 55v29h119v-277h-119l-2 46q0 47 -40 77.5t-95 30.5q-88 0 -139.5 -98.5t-51.5 -206.5q0 -111 54.5 -183.5t154.5 -72.5q88 0 186 84l56 -84q-98 -111 -269 -111q-131 0 -216 101.5t-85 259.5z" />
<glyph unicode="&#xaa;" horiz-adv-x="782" d="M59.5 874.5q6.5 131.5 31 225.5t91 166.5t169 125t265.5 101.5v-799h93v-123h-230v103l17 166q-55 -115 -170 -192t-254 -77q-19 172 -12.5 303.5zM197 711q109 39 195.5 174t86.5 350v84q-184 -74 -243 -197.5t-39 -410.5z" />
<glyph unicode="&#xab;" horiz-adv-x="1067" d="M20 553l512 502l101 -92l-422 -410l426 -406l-105 -94zM399 553l514 502l95 -101l-426 -401l434 -406l-103 -94z" />
<glyph unicode="&#xac;" horiz-adv-x="856" d="M72 537v137h712v-316h-149v179h-563z" />
<glyph unicode="&#xad;" horiz-adv-x="784" d="M72 465v147h641v-147h-641z" />
<glyph unicode="&#xae;" horiz-adv-x="1490" d="M72 834q0 291 195.5 487.5t480.5 196.5q281 0 476 -197t195 -487q0 -274 -199.5 -473t-478.5 -199q-283 0 -476 199t-193 473zM207 831q0 -217 158.5 -374.5t384 -157.5t379 157.5t153.5 374.5q0 227 -153.5 388t-379 161t-384 -162t-158.5 -387zM479 473v107h78v557h-78 v106h250q129 0 211 -64.5t82 -170.5q0 -76 -56.5 -127.5t-113.5 -51.5q113 -23 135 -249h72v-107h-172q0 313 -142 313h-77v-206h71v-107h-260zM668 883h102q63 0 102 31.5t39 95.5q0 145 -243 127v-254z" />
<glyph unicode="&#xaf;" horiz-adv-x="600" d="M0 1262q20 53 73.5 105t112.5 52q57 0 126 -51t91 -51q12 0 23.5 3t22 10t17.5 12.5t17.5 16.5t13.5 15t11 19l10 12l82 -39q-68 -158 -190 -158q-47 0 -118 52.5t-102 52.5q-10 0 -18 -2t-17.5 -9.5t-15.5 -11.5t-16 -15t-13.5 -15.5t-14.5 -18.5t-13 -16z" />
<glyph unicode="&#xb0;" horiz-adv-x="534" d="M0 1182q0 115 77 194.5t187.5 79.5t190.5 -81t80 -193q0 -106 -80 -186.5t-190.5 -80.5t-187.5 79t-77 188zM88 1181.5q0 -75.5 52.5 -126.5t127.5 -51q78 0 130.5 51t52.5 126.5t-52.5 130t-130.5 54.5q-76 0 -128 -54.5t-52 -130z" />
<glyph unicode="&#xb1;" horiz-adv-x="856" d="M72 4h712v-137h-712v137zM76 504v135h276v328h152v-328h276v-135h-276v-330h-152v330h-276z" />
<glyph unicode="&#xb2;" horiz-adv-x="698" d="M72 897q25 252 219 401q4 4 22.5 17.5t25.5 18.5t23.5 19.5t24.5 23.5t20.5 25.5t19.5 32t14.5 35t9.5 39.5q-160 33 -267 -110l-100 59q61 113 176 148.5t322 9.5q4 -84 -7.5 -147.5t-44 -109.5t-58.5 -70.5t-73 -61.5q-47 -35 -69.5 -55.5t-50 -61.5t-37.5 -88h354 v-125h-524z" />
<glyph unicode="&#xb3;" horiz-adv-x="708" d="M72 973q211 8 304 53t93 131q0 47 -25.5 73.5t-64.5 32t-79 1.5t-77 -19l-20 96q125 33 187.5 71t90.5 112h-315v106h471q-12 -94 -60.5 -175t-134.5 -109q53 -6 91 -30t52.5 -56.5t19.5 -55t5 -43.5q0 -123 -115.5 -209t-392.5 -86z" />
<glyph unicode="&#xb4;" horiz-adv-x="364" d="M0 1272l254 225l111 -115l-275 -200z" />
<glyph unicode="&#xb5;" horiz-adv-x="978" d="M72 860v137h258v-852q121 39 215 188.5t94 383.5v143h-74v137h299v-137h-78v-723h111v-137h-258v59l18 267q-25 -102 -120 -196.5t-207 -129.5v-246h76v-137h-304v137h80v1106h-110z" />
<glyph unicode="&#xb6;" horiz-adv-x="1124" d="M97.5 974q11.5 93 56.5 164.5t150.5 119t262.5 47.5v-1518h-315v147h160v803q-88 -84 -254 -102q-35 78 -53.5 162t-7 177zM715 1305h317v-148h-160v-1370h-155z" />
<glyph unicode="&#xb7;" horiz-adv-x="303" d="M72 563v262h159v-262h-159z" />
<glyph unicode="&#xb8;" horiz-adv-x="290" d="M0 -279q100 2 126 51.5t5 161.5q100 -10 152 13q23 -162 -39 -237t-230 -89z" />
<glyph unicode="&#xb9;" horiz-adv-x="456" d="M31 1552q240 68 313 78v-733h-143v567l-123 -28z" />
<glyph unicode="&#xba;" horiz-adv-x="745" d="M31 901q0 139 55 254t154 178q-49 -8 -106.5 -1t-76.5 20l31 102q152 -23 195 -22.5t121.5 16.5t127.5 20q68 -195 68 -391q0 -53 -5 -107.5t-24.5 -130t-52.5 -132t-95.5 -96.5t-146.5 -40q-100 0 -172.5 81t-72.5 249zM156 887q0 -82 35.5 -136.5t93.5 -54.5 q55 0 94 38t56.5 101.5t24.5 122t7 119.5q0 152 -33 266q-145 -68 -211.5 -191.5t-66.5 -264.5z" />
<glyph unicode="&#xbb;" horiz-adv-x="1067" d="M51 147l434 406l-426 401l95 101l514 -502l-514 -500zM430 147l426 406l-422 410l101 92l512 -502l-512 -500z" />
<glyph unicode="&#xbc;" horiz-adv-x="1316" d="M51 45l1061 1421l111 -90l-1057 -1415zM59 1278q240 68 314 76v-719h-146v553l-123 -27zM715 137q6 72 10 102.5t17.5 96t29.5 100.5t48 86t74 82t106.5 62.5t146.5 52.5v-461h119v-121h-119v-137h-137v137h-295zM838 258h172v289q-82 -45 -117 -106.5t-55 -182.5z" />
<glyph unicode="&#xbd;" horiz-adv-x="1402" d="M51 1380q240 68 314 78v-733h-144v567l-123 -28zM53 45l1061 1421l111 -90l-1057 -1415zM827 41q25 252 220 401q4 4 22 17.5t25.5 18.5t24 19.5t24.5 23.5t20.5 25.5t19.5 32t14 35t9 39.5q-160 33 -266 -110l-100 59q61 113 175.5 148.5t321.5 9.5q4 -84 -7 -147.5 t-44 -109.5t-58.5 -70.5t-72.5 -61.5q-47 -35 -69.5 -55.5t-50 -61.5t-38.5 -88h355v-125h-525z" />
<glyph unicode="&#xbe;" horiz-adv-x="1474" d="M72 782q211 8 304 53.5t93 131.5q0 47 -25.5 73.5t-64.5 31.5t-79 1t-77 -18l-20 96q125 33 187.5 71t90.5 111h-315v107h471q-12 -94 -60.5 -175t-134.5 -110q53 -6 91 -29.5t52.5 -56.5t19.5 -55.5t5 -42.5q0 -125 -115.5 -210t-392.5 -85zM188 45l1061 1421l111 -90 l-1057 -1415zM852 137q6 72 10 102.5t17.5 96t30 100.5t48 86t73.5 82t106.5 62.5t146.5 52.5v-461h119v-121h-119v-137h-137v137h-295zM975 258h172v289q-82 -45 -117 -106.5t-55 -182.5z" />
<glyph unicode="&#xbf;" horiz-adv-x="749" d="M-10 -150q0 76 33.5 134.5t83 93.5t98.5 65.5t83 70.5t34 91q0 72 -60 103l64 124q143 -61 143 -217q0 -78 -35 -139t-85 -99t-99 -71t-84 -68.5t-35 -76.5q0 -61 96.5 -127t178.5 -74v98h149v-290q-84 14 -175 43.5t-182.5 75.5t-149.5 115.5t-58 147.5zM258 735v262 h152v-262h-152z" />
<glyph unicode="&#xc0;" horiz-adv-x="1331" d="M10 0v147h142l350 1170h-150v147h434l394 -1317h141v-147h-451v147h144l-117 388h-463l-117 -388h140v-147h-447zM422 1769l113 119l253 -225l-92 -96zM475 678h377l-186 649z" />
<glyph unicode="&#xc1;" horiz-adv-x="1331" d="M10 0v147h142l350 1170h-150v147h434l394 -1317h141v-147h-451v147h144l-117 388h-463l-117 -388h140v-147h-447zM475 678h377l-186 649zM537 1663l254 225l110 -114l-274 -201z" />
<glyph unicode="&#xc2;" horiz-adv-x="1331" d="M10 0v147h142l350 1170h-150v147h434l394 -1317h141v-147h-451v147h144l-117 388h-463l-117 -388h140v-147h-447zM354 1632l260 228l258 -228l-79 -67l-179 123l-178 -123zM475 678h377l-186 649z" />
<glyph unicode="&#xc3;" horiz-adv-x="1331" d="M10 0v147h142l350 1170h-150v147h434l394 -1317h141v-147h-451v147h144l-117 388h-463l-117 -388h140v-147h-447zM301 1622q20 53 73.5 105.5t112.5 52.5q57 0 126 -51.5t92 -51.5q12 0 23 3t21.5 10.5l17.5 12.5t17.5 16.5t13.5 15.5t13 18l8 12l82 -39 q-68 -158 -190 -157q-47 0 -118 52t-101 52q-10 0 -18.5 -2t-18 -9t-15.5 -11t-16 -15.5t-13 -15.5t-14.5 -18.5t-13.5 -16.5zM475 678h377l-186 649z" />
<glyph unicode="&#xc4;" horiz-adv-x="1331" d="M10 0v147h142l350 1170h-150v147h434l394 -1317h141v-147h-451v147h144l-117 388h-463l-117 -388h140v-147h-447zM391 1565v243h152v-243h-152zM475 678h377l-186 649zM709 1565v243h151v-243h-151z" />
<glyph unicode="&#xc5;" horiz-adv-x="1331" d="M10 0v147h142l350 1170h-150v147h434l394 -1317h141v-147h-451v147h144l-117 388h-463l-117 -388h140v-147h-447zM451 1735q0 84 55 141t137 57q80 0 137.5 -58t57.5 -140q0 -78 -57.5 -135.5t-137.5 -57.5t-136 57.5t-56 135.5zM475 678h377l-186 649zM543 1735 q0 -39 29.5 -68t70.5 -29t69.5 29t28.5 68q0 41 -28.5 71.5t-69.5 30.5t-70.5 -30.5t-29.5 -71.5z" />
<glyph unicode="&#xc6;" horiz-adv-x="1929" d="M10 0v152h166l524 1169h-184v152h1290v-308h-166v156h-553v-432h617v-152h-617v-585h553v151h166v-303h-884l2 455h-443l-127 -303h172v-152h-516zM551 606h371v725h-56z" />
<glyph unicode="&#xc7;" horiz-adv-x="1040" d="M72 625q0 186 32.5 335.5t86 240.5t123 150.5t137 83t137.5 23.5q154 0 203 -108l-5 92l-2 49h156v-473h-160v37q0 256 -192 256q-156 0 -256.5 -204t-100.5 -472q0 -217 77 -364.5t224 -147.5q78 0 140.5 42t94.5 88t69 120l133 -66q-76 -152 -177.5 -242t-259.5 -90 q-209 0 -334.5 164t-125.5 486zM365 -352q100 2 125.5 51t5.5 162q100 -10 151 12q23 -162 -38.5 -236.5t-229.5 -89.5z" />
<glyph unicode="&#xc8;" horiz-adv-x="1220" d="M133 1292v148h965v-303h-160v155h-483v-424h544v-147h-544v-574h483v148h160v-295h-963v147h160v1145h-162zM475 1759l113 119l254 -225l-92 -97z" />
<glyph unicode="&#xc9;" horiz-adv-x="1220" d="M133 1292v148h965v-303h-160v155h-483v-424h544v-147h-544v-574h483v148h160v-295h-963v147h160v1145h-162zM506 1653l254 225l110 -115l-274 -200z" />
<glyph unicode="&#xca;" horiz-adv-x="1220" d="M133 1292v148h965v-303h-160v155h-483v-424h544v-147h-544v-574h483v148h160v-295h-963v147h160v1145h-162zM399 1632l260 228l259 -228l-80 -67l-179 123l-178 -123z" />
<glyph unicode="&#xcb;" horiz-adv-x="1220" d="M133 1292v148h965v-303h-160v155h-483v-424h544v-147h-544v-574h483v148h160v-295h-963v147h160v1145h-162zM412 1546v244h151v-244h-151zM729 1546v244h152v-244h-152z" />
<glyph unicode="&#xcc;" horiz-adv-x="745" d="M133 0v147h158v1145h-158v148h479v-148h-161v-1145h161v-147h-479zM193 1778l112 118l254 -225l-92 -96z" />
<glyph unicode="&#xcd;" horiz-adv-x="745" d="M133 0v147h158v1145h-158v148h479v-148h-161v-1145h161v-147h-479zM190 1671l254 225l111 -114l-274 -201z" />
<glyph unicode="&#xce;" horiz-adv-x="784" d="M133 1632l260 228l258 -228l-80 -67l-178 123l-178 -123zM158 0v147h157v1145h-157v148h479v-148h-162v-1145h162v-147h-479z" />
<glyph unicode="&#xcf;" horiz-adv-x="745" d="M133 0v147h158v1145h-158v148h479v-148h-161v-1145h161v-147h-479zM141 1597v244h152v-244h-152zM459 1597v244h151v-244h-151z" />
<glyph unicode="&#xd0;" horiz-adv-x="600" d="M0 1262q20 53 73.5 105t112.5 52q57 0 126 -51t91 -51q12 0 23.5 3t22 10t17.5 12.5t17.5 16.5t13.5 15t11 19l10 12l82 -39q-68 -158 -190 -158q-47 0 -118 52.5t-102 52.5q-10 0 -18 -2t-17.5 -9.5t-15.5 -11.5t-16 -15t-13.5 -15.5t-14.5 -18.5t-13 -16z" />
<glyph unicode="&#xd1;" horiz-adv-x="1495" d="M133 0v147h160v1145h-160v148h412l528 -1133l-8 144v841h-160v148h467v-148h-155v-1296h-166l-613 1309l6 -111v-1047h160v-147h-471zM455 1642q20 53 73.5 105.5t112.5 52.5q57 0 126 -51t91 -51q12 0 23.5 3t21.5 10t17.5 12.5t17.5 16.5t13 15t12 19l10 12l82 -39 q-68 -158 -191 -158q-47 0 -117.5 52.5t-101.5 52.5q-10 0 -18.5 -2t-17.5 -9.5t-15 -11.5t-16.5 -15t-13.5 -15.5t-14 -18.5t-13 -16z" />
<glyph unicode="&#xd2;" horiz-adv-x="1132" d="M72 715q0 344 143 562t366.5 218t351.5 -214t128 -566q0 -369 -134 -549t-364 -180q-223 0 -357 194.5t-134 534.5zM231 715q0 -166 32 -286t85 -181.5t106.5 -88t108.5 -26.5q63 0 116.5 23.5t107 82t84 180.5t30.5 296q0 322 -96 477.5t-223 155.5q-131 0 -241 -163 t-110 -470zM377 1759l112 119l254 -225l-92 -97z" />
<glyph unicode="&#xd3;" horiz-adv-x="1132" d="M72 715q0 344 143 562t366.5 218t351.5 -214t128 -566q0 -369 -134 -549t-364 -180q-223 0 -357 194.5t-134 534.5zM231 715q0 -166 32 -286t85 -181.5t106.5 -88t108.5 -26.5q63 0 116.5 23.5t107 82t84 180.5t30.5 296q0 322 -96 477.5t-223 155.5q-131 0 -241 -163 t-110 -470zM473 1653l254 225l111 -115l-275 -200z" />
<glyph unicode="&#xd4;" horiz-adv-x="1132" d="M72 715q0 344 143 562t366.5 218t351.5 -214t128 -566q0 -369 -134 -549t-364 -180q-223 0 -357 194.5t-134 534.5zM231 715q0 -166 32 -286t85 -181.5t106.5 -88t108.5 -26.5q63 0 116.5 23.5t107 82t84 180.5t30.5 296q0 322 -96 477.5t-223 155.5q-131 0 -241 -163 t-110 -470zM311 1651l260 227l258 -227l-79 -68l-179 123l-178 -123z" />
<glyph unicode="&#xd5;" horiz-adv-x="1132" d="M72 715q0 344 143 562t366.5 218t351.5 -214t128 -566q0 -369 -134 -549t-364 -180q-223 0 -357 194.5t-134 534.5zM231 715q0 -166 32 -286t85 -181.5t106.5 -88t108.5 -26.5q63 0 116.5 23.5t107 82t84 180.5t30.5 296q0 322 -96 477.5t-223 155.5q-131 0 -241 -163 t-110 -470zM279 1642q20 53 73.5 105.5t112.5 52.5q57 0 125.5 -51t91.5 -51q12 0 23.5 3t21.5 10t17.5 12.5t17.5 16.5t13 15t11 19l11 12l82 -39q-68 -158 -191 -158q-47 0 -117.5 52.5t-101.5 52.5q-10 0 -18.5 -2t-17.5 -9.5t-15 -11.5t-16.5 -15t-13.5 -15.5 t-14.5 -18.5t-13.5 -16z" />
<glyph unicode="&#xd6;" horiz-adv-x="1132" d="M72 715q0 344 143 562t366.5 218t351.5 -214t128 -566q0 -369 -134 -549t-364 -180q-223 0 -357 194.5t-134 534.5zM231 715q0 -166 32 -286t85 -181.5t106.5 -88t108.5 -26.5q63 0 116.5 23.5t107 82t84 180.5t30.5 296q0 322 -96 477.5t-223 155.5q-131 0 -241 -163 t-110 -470zM342 1587v244h152v-244h-152zM659 1587v244h152v-244h-152z" />
<glyph unicode="&#xd7;" horiz-adv-x="806" d="M72 326l233 231l-233 225l102 105l229 -234l226 234l106 -105l-235 -225l233 -231l-104 -103l-226 236l-227 -236z" />
<glyph unicode="&#xd8;" horiz-adv-x="1132" d="M72 715q0 344 143 562t367 218q90 0 163 -37l52 152h161l-86 -248q188 -211 189 -647q0 -369 -134 -549t-364 -180q-76 0 -151 26l-84 -245h-162l113 329q-207 189 -207 619zM231 715q0 -297 105 -451l358 1049q-57 35 -112 35q-131 0 -241 -163t-110 -470zM461 156 q47 -23 102 -23q63 0 116.5 23.5t107 82t84 180.5t30.5 296q0 293 -90 463z" />
<glyph unicode="&#xd9;" horiz-adv-x="1374" d="M102 1292v148h316v-1266q80 16 165 77.5t162.5 165t128 268.5t50.5 359v248h-131v148h448v-148h-158v-1145h158v-147h-317v455q-70 -209 -252.5 -332t-413.5 -123v1292h-156zM391 1778l113 118l254 -225l-92 -96z" />
<glyph unicode="&#xda;" horiz-adv-x="1374" d="M102 1292v148h316v-1266q80 16 165 77.5t162.5 165t128 268.5t50.5 359v248h-131v148h448v-148h-158v-1145h158v-147h-317v455q-70 -209 -252.5 -332t-413.5 -123v1292h-156zM489 1653l254 225l111 -115l-274 -200z" />
<glyph unicode="&#xdb;" horiz-adv-x="1374" d="M102 1292v148h316v-1266q80 16 165 77.5t162.5 165t128 268.5t50.5 359v248h-131v148h448v-148h-158v-1145h158v-147h-317v455q-70 -209 -252.5 -332t-413.5 -123v1292h-156zM399 1651l260 227l259 -227l-80 -68l-179 123l-178 -123z" />
<glyph unicode="&#xdc;" horiz-adv-x="1374" d="M102 1292v148h316v-1266q80 16 165 77.5t162.5 165t128 268.5t50.5 359v248h-131v148h448v-148h-158v-1145h158v-147h-317v455q-70 -209 -252.5 -332t-413.5 -123v1292h-156zM442 1595v244h152v-244h-152zM760 1595v244h151v-244h-151z" />
<glyph unicode="&#xdd;" horiz-adv-x="1118" d="M20 1292v148h426v-148h-133q0 -174 70 -345t174 -263q111 92 177.5 255t66.5 353h-135v148h432v-148h-137q0 -221 -91.5 -408.5t-234.5 -318.5v-418h160v-147h-478v147h158v418q-141 131 -231 318.5t-90 408.5h-134zM463 1653l254 225l110 -115l-274 -200z" />
<glyph unicode="&#xde;" horiz-adv-x="600" d="M0 1262q20 53 73.5 105t112.5 52q57 0 126 -51t91 -51q12 0 23.5 3t22 10t17.5 12.5t17.5 16.5t13.5 15t11 19l10 12l82 -39q-68 -158 -190 -158q-47 0 -118 52.5t-102 52.5q-10 0 -18 -2t-17.5 -9.5t-15.5 -11.5t-16 -15t-13.5 -15.5t-14.5 -18.5t-13 -16z" />
<glyph unicode="&#xdf;" horiz-adv-x="985" d="M-31 -154q61 -4 121 75t60 231v663q0 399 292 588q184 117 449 117q0 -236 -46 -346.5t-171 -235.5q-14 -14 -45 -43t-45.5 -44t-33 -37.5t-25.5 -44t-7 -46.5q0 -43 40 -64.5t96.5 -31t112.5 -24.5t96 -62t40 -127q0 -90 -32.5 -166t-86 -125t-123 -82t-139 -47 t-139.5 -14v317h141v-154q88 6 161 72t73 168q0 45 -41 68.5t-98.5 34t-115 28.5t-98 69.5t-40.5 139.5q0 55 25.5 107.5t47 78t88 87t88.5 83.5q125 125 125 295q-70 -14 -135 -44t-139 -90t-119 -169.5t-45 -255.5v-659q0 -188 -99.5 -322.5t-232.5 -134.5v147z" />
<glyph unicode="&#xe0;" d="M75.5 512q30.5 199 165 312.5t441.5 199.5v-887h102v-137h-254v115l19 184q-61 -127 -188.5 -213t-282.5 -86q-33 313 -2.5 512zM182 1378l113 119l254 -225l-92 -96zM217 176q127 39 220 162t93 358v135q-141 -57 -209.5 -125.5t-94 -190.5t-9.5 -339z" />
<glyph unicode="&#xe1;" d="M75.5 512q30.5 199 165 312.5t441.5 199.5v-887h102v-137h-254v115l19 184q-61 -127 -188.5 -213t-282.5 -86q-33 313 -2.5 512zM217 176q127 39 220 162t93 358v135q-141 -57 -209.5 -125.5t-94 -190.5t-9.5 -339zM254 1272l254 225l110 -115l-274 -200z" />
<glyph unicode="&#xe2;" d="M75.5 512q30.5 199 165 312.5t441.5 199.5v-887h102v-137h-254v115l19 184q-61 -127 -188.5 -213t-282.5 -86q-33 313 -2.5 512zM164 1260l260 227l258 -227l-80 -68l-178 123l-178 -123zM217 176q127 39 220 162t93 358v135q-141 -57 -209.5 -125.5t-94 -190.5 t-9.5 -339z" />
<glyph unicode="&#xe3;" d="M75.5 512q30.5 199 165 312.5t441.5 199.5v-887h102v-137h-254v115l19 184q-61 -127 -188.5 -213t-282.5 -86q-33 313 -2.5 512zM129 1243q20 53 73.5 105.5t112.5 52.5q57 0 126 -51.5t91 -51.5q12 0 23.5 3.5t22 10.5t17.5 12t17.5 16.5t13.5 15.5t13 16l8 14l82 -38 q-68 -158 -190 -158q-47 0 -118 52t-102 52q-10 0 -18 -2t-17.5 -9t-15.5 -11t-16 -15.5t-13 -15.5t-14.5 -18.5t-13.5 -16.5zM217 176q127 39 220 162t93 358v135q-141 -57 -209.5 -125.5t-94 -190.5t-9.5 -339z" />
<glyph unicode="&#xe4;" d="M75.5 512q30.5 199 165 312.5t441.5 199.5v-887h102v-137h-254v115l19 184q-61 -127 -188.5 -213t-282.5 -86q-33 313 -2.5 512zM186 1169v244h152v-244h-152zM217 176q127 39 220 162t93 358v135q-141 -57 -209.5 -125.5t-94 -190.5t-9.5 -339zM504 1169v244h151v-244 h-151z" />
<glyph unicode="&#xe5;" d="M75.5 512q30.5 199 165 312.5t441.5 199.5v-887h102v-137h-254v115l19 184q-61 -127 -188.5 -213t-282.5 -86q-33 313 -2.5 512zM217 176q127 39 220 162t93 358v135q-141 -57 -209.5 -125.5t-94 -190.5t-9.5 -339zM246 1292q0 84 55 141.5t137 57.5q80 0 137.5 -58.5 t57.5 -140.5q0 -78 -57.5 -135t-137.5 -57t-136 57t-56 135zM338 1292q0 -39 29.5 -67.5t70.5 -28.5t70 28.5t29 67.5q0 41 -29 72t-70 31t-70.5 -31t-29.5 -72z" />
<glyph unicode="&#xe6;" horiz-adv-x="1212" d="M83 236.5q-5 103.5 12.5 182.5t43 131t85 96t117.5 73t157 67q0 29 -33 62t-108.5 47t-202.5 -45l-56 125q121 53 221.5 61t161 -19.5t101.5 -69.5t56 -82t11 -64q35 80 154 137t311 76q20 -348 -86 -516t-371 -176l11 -185q133 6 203.5 42t132.5 126l126 -72 q-100 -143 -218.5 -188t-379.5 -45q-8 92 -12 152l-4 49q-33 -80 -146.5 -145.5t-258.5 -65.5q-23 143 -28 246.5zM220 295.5q3 -66.5 24 -150.5q59 12 105 41t75 58.5t48.5 80t28.5 81t14 90t5 78.5v71q-59 -20 -100 -38.5t-83 -46.5t-65.5 -63.5t-39 -85t-12.5 -116z M659 453q162 18 236 102t76 285q-322 -59 -312 -387z" />
<glyph unicode="&#xe7;" horiz-adv-x="737" d="M64.5 345q-3.5 93 3 152.5t22.5 130t46 117t74 94.5t106.5 78.5t146.5 56t188 40.5l2 -328h-151v152q-207 -47 -260.5 -200t-22.5 -499q129 10 197.5 41t120.5 121l122 -72q-45 -80 -99 -127t-170 -77.5t-298 -30.5q-12 113 -18 185.5t-9.5 165.5zM143 -315q100 2 126 51 t5 162q100 -10 152 12q23 -162 -38.5 -236.5t-229.5 -89.5z" />
<glyph unicode="&#xe8;" horiz-adv-x="790" d="M66 473q27 315 251 442q141 80 377 99q10 -332 -100.5 -497t-378.5 -177q0 -117 10 -203q135 4 215 41t140 127l129 -72q-98 -141 -230.5 -191t-392.5 -50q-30 350 -20 481zM203 1378l112 119l254 -225l-92 -96zM219 467q150 12 227.5 99t92.5 280q-164 -33 -244 -134.5 t-76 -244.5z" />
<glyph unicode="&#xe9;" horiz-adv-x="790" d="M66 473q27 315 251 442q141 80 377 99q10 -332 -100.5 -497t-378.5 -177q0 -117 10 -203q135 4 215 41t140 127l129 -72q-98 -141 -230.5 -191t-392.5 -50q-30 350 -20 481zM219 467q150 12 227.5 99t92.5 280q-164 -33 -244 -134.5t-76 -244.5zM242 1272l254 225 l110 -115l-274 -200z" />
<glyph unicode="&#xea;" horiz-adv-x="790" d="M66 473q27 315 251 442q141 80 377 99q10 -332 -100.5 -497t-378.5 -177q0 -117 10 -203q135 4 215 41t140 127l129 -72q-98 -141 -230.5 -191t-392.5 -50q-30 350 -20 481zM123 1270l260 227l258 -227l-80 -68l-178 123l-178 -123zM219 467q150 12 227.5 99t92.5 280 q-164 -33 -244 -134.5t-76 -244.5z" />
<glyph unicode="&#xeb;" horiz-adv-x="790" d="M66 473q27 315 251 442q141 80 377 99q10 -332 -100.5 -497t-378.5 -177q0 -117 10 -203q135 4 215 41t140 127l129 -72q-98 -141 -230.5 -191t-392.5 -50q-30 350 -20 481zM170 1169v244h152v-244h-152zM219 467q150 12 227.5 99t92.5 280q-164 -33 -244 -134.5 t-76 -244.5zM487 1169v244h152v-244h-152z" />
<glyph unicode="&#xec;" horiz-adv-x="509" d="M78 1378l112 119l254 -225l-92 -96zM92 860v137h260v-860h76v-137h-305v137h78v723h-109z" />
<glyph unicode="&#xed;" horiz-adv-x="520" d="M78 860v137h260v-860h76v-137h-305v137h77v723h-108zM90 1272l254 225l111 -115l-275 -200z" />
<glyph unicode="&#xee;" horiz-adv-x="661" d="M78 1270l260 227l258 -227l-80 -68l-178 123l-178 -123zM176 860v137h260v-860h76v-137h-305v137h78v723h-109z" />
<glyph unicode="&#xef;" horiz-adv-x="612" d="M78 1169v244h151v-244h-151zM154 860v137h260v-860h75v-137h-305v137h78v723h-108zM395 1169v244h152v-244h-152z" />
<glyph unicode="&#xf0;" horiz-adv-x="600" d="M0 1262q20 53 73.5 105t112.5 52q57 0 126 -51t91 -51q12 0 23.5 3t22 10t17.5 12.5t17.5 16.5t13.5 15t11 19l10 12l82 -39q-68 -158 -190 -158q-47 0 -118 52.5t-102 52.5q-10 0 -18 -2t-17.5 -9.5t-15.5 -11.5t-16 -15t-13.5 -15.5t-14.5 -18.5t-13 -16z" />
<glyph unicode="&#xf1;" horiz-adv-x="907" d="M82 860v137h258v-71q0 -63 -23 -170q57 123 169 188.5t264 52.5v-860h79v-137h-301v137h70v713q-106 -31 -182 -142.5t-76 -291.5v-279h70v-137h-301v137h79v723h-106zM154 1262q20 53 73.5 105t112.5 52q57 0 126 -51t91 -51q12 0 23.5 3t21.5 10t17.5 12.5t17.5 16.5 t13 15t14 19l8 12l82 -39q-68 -158 -191 -158q-47 0 -117.5 52.5t-101.5 52.5q-10 0 -18.5 -2t-17.5 -9.5t-15 -11.5t-16.5 -15t-13.5 -15.5t-14 -18.5t-13 -16z" />
<glyph unicode="&#xf2;" horiz-adv-x="772" d="M57 358q0 293 242 498q-55 -8 -124 0t-87 23l37 118q102 -20 180 -23t118 5t100.5 20.5t113.5 14.5q78 -221 78 -439q0 -61 -6.5 -124.5t-29 -152.5t-60 -155.5t-109.5 -113.5t-168 -47q-117 0 -201 90.5t-84 285.5zM203 342q0 -94 41 -154.5t106.5 -60.5t110.5 46 t65.5 121t28.5 142.5t8 138.5q0 160 -39 293q-166 -78 -243.5 -221t-77.5 -305zM209 1378l113 119l253 -225l-92 -96z" />
<glyph unicode="&#xf3;" horiz-adv-x="772" d="M57 358q0 293 242 498q-55 -8 -124 0t-87 23l37 118q102 -20 180 -23t118 5t100.5 20.5t113.5 14.5q78 -221 78 -439q0 -61 -6.5 -124.5t-29 -152.5t-60 -155.5t-109.5 -113.5t-168 -47q-117 0 -201 90.5t-84 285.5zM203 342q0 -94 41 -154.5t106.5 -60.5t110.5 46 t65.5 121t28.5 142.5t8 138.5q0 160 -39 293q-166 -78 -243.5 -221t-77.5 -305zM336 1272l254 225l110 -115l-274 -200z" />
<glyph unicode="&#xf4;" horiz-adv-x="772" d="M57 358q0 293 242 498q-55 -8 -124 0t-87 23l37 118q102 -20 180 -23t118 5t100.5 20.5t113.5 14.5q78 -221 78 -439q0 -61 -6.5 -124.5t-29 -152.5t-60 -155.5t-109.5 -113.5t-168 -47q-117 0 -201 90.5t-84 285.5zM127 1270l260 227l258 -227l-80 -68l-178 123 l-178 -123zM203 342q0 -94 41 -154.5t106.5 -60.5t110.5 46t65.5 121t28.5 142.5t8 138.5q0 160 -39 293q-166 -78 -243.5 -221t-77.5 -305z" />
<glyph unicode="&#xf5;" horiz-adv-x="772" d="M57 358q0 293 242 498q-55 -8 -124 0t-87 23l37 118q102 -20 180 -23t118 5t100.5 20.5t113.5 14.5q78 -221 78 -439q0 -61 -6.5 -124.5t-29 -152.5t-60 -155.5t-109.5 -113.5t-168 -47q-117 0 -201 90.5t-84 285.5zM100 1262q20 53 73.5 105t113.5 52q57 0 125.5 -51 t91.5 -51q12 0 23.5 3t21.5 10t17 12.5t17.5 16.5t13.5 15t13 19l8 12l82 -39q-68 -158 -190 -158q-47 0 -117.5 52.5t-101.5 52.5q-10 0 -18.5 -2t-17.5 -9.5t-15.5 -11.5t-16.5 -15t-13 -15.5t-14.5 -18.5t-13.5 -16zM203 342q0 -94 41 -154.5t106.5 -60.5t110.5 46 t65.5 121t28.5 142.5t8 138.5q0 160 -39 293q-166 -78 -243.5 -221t-77.5 -305z" />
<glyph unicode="&#xf6;" horiz-adv-x="772" d="M57 358q0 293 242 498q-55 -8 -124 0t-87 23l37 118q102 -20 180 -23t118 5t100.5 20.5t113.5 14.5q78 -221 78 -439q0 -61 -6.5 -124.5t-29 -152.5t-60 -155.5t-109.5 -113.5t-168 -47q-117 0 -201 90.5t-84 285.5zM195 1169v244h151v-244h-151zM203 342 q0 -94 41 -154.5t106.5 -60.5t110.5 46t65.5 121t28.5 142.5t8 138.5q0 160 -39 293q-166 -78 -243.5 -221t-77.5 -305zM512 1169v244h152v-244h-152z" />
<glyph unicode="&#xf7;" horiz-adv-x="856" d="M72 551v123h712v-123h-712zM358 164v239h146v-239h-146zM358 819v240h146v-240h-146z" />
<glyph unicode="&#xf8;" horiz-adv-x="763" d="M59 -156l93 217q-90 100 -91 297q0 279 211 494q-49 -10 -108.5 1t-79.5 26l37 118q139 -45 280 -20q10 2 62.5 12t87.5 17l67 159l125 -22l-86 -205q53 -174 54 -363q0 -76 -15.5 -163.5t-52.5 -191t-115.5 -171t-189.5 -67.5q-35 0 -76 10l-67 -162zM213 348 q0 -63 12 -110l264 622q-141 -61 -208.5 -210.5t-67.5 -301.5zM315 121q10 -2 31 -2q57 0 100 48t67 121.5t35 147.5t11 139q0 43 -4 117z" />
<glyph unicode="&#xf9;" horiz-adv-x="978" d="M61 860v137h261v-831q123 45 216 180t93 371v143h-74v137h303v-137h-78v-723h111v-137h-262v109l18 215q-53 -156 -182 -240t-297 -84v860h-109zM221 1360l113 119l254 -226l-92 -96z" />
<glyph unicode="&#xfa;" horiz-adv-x="978" d="M61 860v137h261v-831q123 45 216 180t93 371v143h-74v137h303v-137h-78v-723h111v-137h-262v109l18 215q-53 -156 -182 -240t-297 -84v860h-109zM348 1253l254 226l111 -115l-275 -201z" />
<glyph unicode="&#xfb;" horiz-adv-x="978" d="M61 860v137h261v-831q123 45 216 180t93 371v143h-74v137h303v-137h-78v-723h111v-137h-262v109l18 215q-53 -156 -182 -240t-297 -84v860h-109zM215 1270l260 227l258 -227l-80 -68l-178 123l-178 -123z" />
<glyph unicode="&#xfc;" horiz-adv-x="978" d="M61 860v137h261v-831q123 45 216 180t93 371v143h-74v137h303v-137h-78v-723h111v-137h-262v109l18 215q-53 -156 -182 -240t-297 -84v860h-109zM238 1169v244h151v-244h-151zM555 1169v244h152v-244h-152z" />
<glyph unicode="&#xfd;" horiz-adv-x="954" d="M78 860v137h264v-843q297 96 297 503v203h-84v137h328v-137h-92v-747q0 -135 -48.5 -236.5t-133.5 -159t-189.5 -86t-229.5 -28.5v239h152v-75q305 43 305 346q0 111 6 198q-86 -311 -463 -311v860h-112zM305 1272l254 225l111 -115l-275 -200z" />
<glyph unicode="&#xfe;" horiz-adv-x="600" d="M0 1262q20 53 73.5 105t112.5 52q57 0 126 -51t91 -51q12 0 23.5 3t22 10t17.5 12.5t17.5 16.5t13.5 15t11 19l10 12l82 -39q-68 -158 -190 -158q-47 0 -118 52.5t-102 52.5q-10 0 -18 -2t-17.5 -9.5t-15.5 -11.5t-16 -15t-13.5 -15.5t-14.5 -18.5t-13 -16z" />
<glyph unicode="&#xff;" horiz-adv-x="954" d="M78 860v137h264v-843q297 96 297 503v203h-84v137h328v-137h-92v-747q0 -135 -48.5 -236.5t-133.5 -159t-189.5 -86t-229.5 -28.5v239h152v-75q305 43 305 346q0 111 6 198q-86 -311 -463 -311v860h-112zM246 1169v244h151v-244h-151zM563 1169v244h152v-244h-152z" />
<glyph unicode="&#x152;" horiz-adv-x="1765" d="M72 713q0 342 143 548.5t367 206.5q80 0 153 -28h907v-303h-159v155h-565q117 -172 137 -444h489v-148h-483q0 -342 -143 -550l565 -3v148h159v-295h-933q-63 -20 -146 -20q-223 0 -357 196.5t-134 536.5zM231 713q0 -166 32 -287t85 -182.5t106.5 -89t108.5 -27.5 q49 0 92 13.5t90.5 52t80 101t54 170t21.5 249.5q0 319 -95 463.5t-224 144.5q-133 0 -242 -151.5t-109 -456.5z" />
<glyph unicode="&#x153;" horiz-adv-x="1286" d="M57 358q0 293 242 498q-55 -8 -124 0t-87 23q6 18 18.5 59t18.5 59q102 -20 180 -23t118 5t100.5 20.5t113.5 14.5q45 -137 51 -209q162 184 502 209q10 -326 -103.5 -487.5t-375.5 -186.5q-4 -117 10 -203q137 6 216 43t138 125q23 -12 66 -35.5t63 -36.5 q-96 -141 -227 -187t-395 -46q-8 53 -9 127q-74 -137 -231 -137q-119 0 -202 87.5t-83 280.5zM201 342q0 -94 40 -150.5t109 -56.5q66 0 111 44t65.5 118t28.5 140.5t8 137.5q0 160 -39 293q-166 -78 -244.5 -221t-78.5 -305zM715 467q152 23 229.5 106.5t89.5 272.5 q-164 -41 -243.5 -142.5t-75.5 -236.5z" />
<glyph unicode="&#x178;" horiz-adv-x="1118" d="M20 1292v148h426v-148h-133q0 -174 70 -345t174 -263q111 92 177.5 255t66.5 353h-135v148h432v-148h-137q0 -221 -91.5 -408.5t-234.5 -318.5v-418h160v-147h-478v147h158v418q-141 131 -231 318.5t-90 408.5h-134zM326 1638v244h151v-244h-151zM643 1638v244h152v-244 h-152z" />
<glyph unicode="&#x2c6;" horiz-adv-x="518" d="M0 1270l260 227l258 -227l-80 -68l-178 123l-178 -123z" />
<glyph unicode="&#x2dc;" horiz-adv-x="600" d="M0 1262q20 53 73.5 105t112.5 52q57 0 126 -51t91 -51q12 0 23.5 3t22 10t17.5 12.5t17.5 16.5t13.5 15t11 19l10 12l82 -39q-68 -158 -190 -158q-47 0 -118 52.5t-102 52.5q-10 0 -18 -2t-17.5 -9.5t-15.5 -11.5t-16 -15t-13.5 -15.5t-14.5 -18.5t-13 -16z" />
<glyph unicode="&#x2000;" horiz-adv-x="966" />
<glyph unicode="&#x2001;" horiz-adv-x="1933" />
<glyph unicode="&#x2002;" horiz-adv-x="966" />
<glyph unicode="&#x2003;" horiz-adv-x="1933" />
<glyph unicode="&#x2004;" horiz-adv-x="643" />
<glyph unicode="&#x2005;" horiz-adv-x="483" />
<glyph unicode="&#x2006;" horiz-adv-x="321" />
<glyph unicode="&#x2007;" horiz-adv-x="321" />
<glyph unicode="&#x2008;" horiz-adv-x="241" />
<glyph unicode="&#x2009;" horiz-adv-x="385" />
<glyph unicode="&#x200a;" horiz-adv-x="106" />
<glyph unicode="&#x2010;" horiz-adv-x="784" d="M72 465v147h641v-147h-641z" />
<glyph unicode="&#x2011;" horiz-adv-x="784" d="M72 465v147h641v-147h-641z" />
<glyph unicode="&#x2012;" horiz-adv-x="784" d="M72 465v147h641v-147h-641z" />
<glyph unicode="&#x2013;" horiz-adv-x="1024" d="M0 479v133h1024v-133h-1024z" />
<glyph unicode="&#x2014;" horiz-adv-x="2048" d="M195 481v133h1658v-133h-1658z" />
<glyph unicode="&#x2018;" horiz-adv-x="382" d="M104 952q-25 268 6 419t138 247l84 -96q-63 -119 -75.5 -215.5t-0.5 -354.5h-152z" />
<glyph unicode="&#x2019;" horiz-adv-x="382" d="M51 1049q63 119 75.5 215t0.5 354h152q25 -268 -6 -418.5t-138 -247.5z" />
<glyph unicode="&#x201a;" horiz-adv-x="423" d="M113 -299q63 119 75.5 215t-0.5 354h152q25 -268 -6 -418.5t-137 -246.5z" />
<glyph unicode="&#x201c;" horiz-adv-x="755" d="M104 950q-25 268 6 419t138 247l84 -96q-63 -119 -75.5 -215.5t-0.5 -354.5h-152zM436 950q-25 268 6 419t138 247l84 -96q-63 -119 -76 -215.5t0 -354.5h-152z" />
<glyph unicode="&#x201d;" horiz-adv-x="755" d="M92 1047q63 119 75.5 215t0.5 354h151q25 -268 -5.5 -418.5t-137.5 -247.5zM424 1047q63 119 75.5 215t0.5 354h151q25 -268 -6 -418.5t-137 -247.5z" />
<glyph unicode="&#x201e;" horiz-adv-x="755" d="M72 -311q63 119 75.5 215t-0.5 354h152q25 -268 -6 -418.5t-137 -247.5zM403 -311q63 119 76 215t0 354h152q25 -268 -6 -418.5t-138 -247.5z" />
<glyph unicode="&#x2022;" horiz-adv-x="565" d="M72 682q0 88 60.5 149.5t150.5 61.5q86 0 148.5 -61.5t62.5 -149.5q0 -86 -62.5 -148.5t-148.5 -62.5q-88 0 -149.5 62.5t-61.5 148.5z" />
<glyph unicode="&#x2026;" horiz-adv-x="1003" d="M72 0v262h159v-262h-159zM420 0v262h160v-262h-160zM772 0v262h160v-262h-160z" />
<glyph unicode="&#x202f;" horiz-adv-x="385" />
<glyph unicode="&#x2039;" horiz-adv-x="677" d="M20 553l512 502l91 -92l-428 -410l432 -406l-95 -94z" />
<glyph unicode="&#x203a;" horiz-adv-x="677" d="M51 147l432 406l-428 410l90 92l512 -502l-512 -500z" />
<glyph unicode="&#x205f;" horiz-adv-x="483" />
<glyph unicode="&#x20ac;" horiz-adv-x="1187" d="M51 782l37 123h184q29 127 84.5 221.5t124 144.5t136 73.5t139.5 23.5q68 0 146.5 -30.5t133.5 -90.5l-55 -133q-10 12 -30.5 31.5t-79 51.5t-115.5 32q-106 0 -188.5 -88t-127.5 -236h387l-36 -123h-379q-12 -90 -17 -133h434l-36 -125h-394q12 -178 89 -293.5 t212 -115.5q111 0 182.5 62.5t131.5 166.5l123 -59q-80 -143 -178.5 -226.5t-258.5 -83.5q-197 0 -322.5 138.5t-137.5 410.5h-187l37 125h150q0 47 8 133h-197z" />
<glyph unicode="&#x2122;" horiz-adv-x="1746" d="M0 1245l2 197h660v-197h-115v92h-156v-596h101v-106h-322v106h100v596h-155v-92h-115zM647 635v106h98l111 596h-90v105h266l123 -592l133 592h268v-105h-92l111 -596h100v-106h-284v106h77l-106 590l-156 -700h-98l-156 700l-100 -590h78v-106h-283z" />
<glyph unicode="&#xe000;" horiz-adv-x="995" d="M0 995h995v-995h-995v995z" />
<glyph unicode="&#xfb01;" horiz-adv-x="1013" d="M82 0v137h76v723h-76v137h76v142q0 223 165.5 311t479.5 -2l-31 -137q-248 59 -355.5 13t-107.5 -198v-129h549v-860h78v-137h-307v137h78v723h-398v-723h82v-137h-309z" />
<glyph unicode="&#xfb02;" horiz-adv-x="964" d="M82 0v137h76v723h-76v137h76v142q-2 223 161.5 309t485.5 0v-1172q0 -63 20.5 -101t42 -48t52.5 -14l-9 -138q-119 4 -188.5 85t-69.5 216v1057q-180 29 -262 -23.5t-82 -183.5v-129h137v-137h-137v-723h82v-137h-309z" />
<glyph unicode="&#xfb03;" horiz-adv-x="1482" d="M1069 860v137h260v-860h76v-137h-305v137h77v723h-108zM1177 1182v260h152v-260h-152zM576 0v137h76v723h-76v137h76v240q0 152 88 228q84 73 224 73h15l9 -137q-184 -8 -185 -164v-240h82v-137h-82v-723h82v-137h-309zM82 0v137h76v723h-76v137h76v240q0 152 88 228 q84 73 224 73h15l9 -137q-184 -8 -185 -164v-240h82v-137h-82v-723h82v-137h-309z" />
<glyph unicode="&#xfb04;" horiz-adv-x="1425" d="M1032 1384v138h307v-138h-78v-1108q0 -63 21.5 -101t43 -47t54.5 -15l-22 -138q-119 6 -183.5 86t-64.5 215v1108h-78zM576 0v137h76v723h-76v137h76v240q0 152 88 228q84 73 224 73h15l9 -137q-184 -8 -185 -164v-240h82v-137h-82v-723h82v-137h-309zM82 0v137h76v723 h-76v137h76v240q0 152 88 228q84 73 224 73h15l9 -137q-184 -8 -185 -164v-240h82v-137h-82v-723h82v-137h-309z" />
</font>
</defs>
</svg>
